<svg version="1.1" xmlns="http://www.w3.org/2000/svg" xmlns:xlink="http://www.w3.org/1999/xlink" width="357.83181" height="185.34548" viewBox="0,0,357.83181,185.34548"><g transform="translate(-61.0841,-87.40888)"><g data-paper-data="{&quot;isPaintingLayer&quot;:true}" fill-rule="nonzero" stroke="none" stroke-width="0" stroke-linejoin="miter" stroke-miterlimit="10" stroke-dasharray="" stroke-dashoffset="0" style="mix-blend-mode: normal"><g stroke-linecap="butt"><path d="M61.0841,149.24513v-61.83625h357.83181v61.83625z" fill="#5ccefa"/><path d="M61.0841,210.91812v-61.83624h357.8318v61.83624z" fill="#f4a9b7"/><path d="M61.0841,272.75437v-61.83624h357.83181v61.83624z" fill="#ffffff"/></g><g stroke-linecap="round"><path d="M278.43115,123.52016c0,0 -3.05331,-1.14251 -3.87726,-4.31452c-0.93833,-3.61232 0.411,-9.49086 1.77861,-12.84179c1.43986,-3.52795 2.96554,-5.92478 6.78705,-8.32167c2.31666,-1.45304 4.16676,-2.26057 6.84751,-1.72034c1.33631,0.26929 2.72844,0.90711 3.32288,1.65015c1.20611,1.50764 1.95748,3.08796 2.30246,4.59204c0.42579,1.85641 0.36149,3.66116 1.31758,5.84395c1.61134,3.67874 3.4809,4.20462 3.4809,4.20462c0,0 11.899,0.88851 22.91925,6.36532c7.69045,3.82198 14.41892,10.8397 18.6325,17.28931c6.23122,9.53792 5.25455,18.78824 5.25455,18.78824c0,0 6.3353,-1.26004 8.72852,-0.9839c10.83654,1.25036 8.76697,20.57702 -1.02842,25.37748c-3.4061,1.66924 -9.26157,2.96387 -12.64104,0.55712l-2.02557,1.88367c0,0 0.23989,4.37162 -1.14354,8.64934c-0.96069,2.97057 -3.17646,6.15356 -5.82937,8.26362c-3.05253,2.4279 -6.20292,3.77837 -6.20292,3.77837c0,0 8.27931,2.9214 18.6016,2.30581c6.46884,-0.38579 14.28415,-3.0759 19.02084,-6.34182c5.15843,-3.55671 4.93652,-9.0466 2.45953,-14.80196c-0.85976,-1.99768 -4.09115,-5.29114 -5.73749,-8.63892c-1.21572,-2.47211 -2.63934,-4.86079 -2.27898,-7.10894c1.19094,-7.42985 10.97239,-13.32498 19.78146,-15.62536c6.81433,-1.77948 12.49194,-1.63946 17.32193,3.48625c0.93735,0.99474 2.38322,2.56529 3.11706,4.40287c2.15768,5.40292 1.8635,10.59638 -2.63034,14.29131c-2.17458,1.78799 -6.05976,3.33332 -8.76266,1.97119c-1.3609,-0.68583 -3.13176,-2.16185 -3.42193,-3.83427c-0.31906,-1.83889 1.24114,-3.64073 1.73551,-5.16512c0.84284,-2.59889 -1.0849,-3.37891 -3.63634,-2.40176c-1.09181,0.41814 -3.74567,0.66182 -5.69645,1.69016c-1.86122,0.98112 -3.21548,2.2381 -3.35579,3.69953c-0.21556,2.24512 3.15069,5.24726 4.76413,8.19861c4.0203,7.35406 2.99098,19.04208 -2.83253,26.56597c-6.86361,8.86769 -19.01214,13.16096 -19.01214,13.16096c0,0 3.46779,2.43418 4.47251,6.54028c1.06014,4.33264 -0.22176,10.24881 0.34128,14.59312c0.33704,2.6005 1.92781,5.74863 2.67098,8.06345c1.05644,3.2906 1.13984,5.92246 -2.72238,9.34034c-1.96513,1.8617 -4.89071,3.64778 -7.59973,3.69242c-3.07661,0.03355 -4.12918,-1.80955 -4.12918,-1.80955c0,0 0.0112,1.69022 -3.25567,0.93718c-1.88059,-0.43289 -2.09236,-1.78915 -2.09236,-1.78915c0,0 -4.541,1.03091 -4.07384,-3.99181c0.33195,-1.57182 1.73597,-3.39111 1.73597,-3.39111c0,0 -2.54669,2.38075 -4.94789,2.68759c-2.76641,0.13343 -3.83599,-1.86409 -3.83599,-1.86409c0,0 -0.77814,1.30158 -3.00189,1.00137c-1.3193,-0.16417 -3.03703,-2.09936 -3.03703,-2.09936c0,0 -1.25187,1.66184 -4.03896,-2.00619c-0.2444,-2.94595 2.39198,-4.85622 2.39198,-4.85622c0,0 -2.85118,0.2745 -4.11745,0.2745c-1.08438,0 -3.01946,-0.0663 -3.01946,-0.0663c0,0 0.67648,3.19259 0.21157,6.92086c-0.4116,3.30075 -1.93393,8.4136 -4.89918,10.58369c-2.09433,1.53271 -6.8978,3.08323 -9.6816,2.5387c-3.22128,-0.63011 -4.02205,-3.78166 -4.02205,-3.78166c0,0 -1.2554,2.30237 -4.13835,1.93959c-1.31342,-0.16528 -3.54755,-2.21409 -3.54755,-2.21409c0,0 -1.98335,0.62829 -3.03255,-0.40381c-1.10914,-1.09107 -1.68399,-3.15422 -1.20308,-4.86887c0.73962,-2.63706 3.10865,-4.88369 3.10865,-4.88369l0.3413,-7.4777c0,0 -5.88633,3.40117 -8.89133,3.59504c-4.88665,0.31527 -11.57651,-4.39032 -14.58375,-7.62055c-1.54488,-1.65943 -1.54191,-2.77061 -1.54191,-2.77061c0,0 -2.91203,-0.51655 -4.39215,-2.52352c-0.80606,-1.09298 -0.97858,-2.92125 -0.46266,-4.33351c0.53102,-1.45357 1.76304,-2.47585 1.76304,-2.47585c0,0 2.10562,-2.14634 3.60951,-2.622c2.04818,-0.64782 3.68365,-0.13955 5.43269,-0.27776c2.28251,-0.18037 4.60822,-1.04953 6.76953,-2.83495c1.09597,-0.90536 2.65184,-3.32367 2.65184,-3.32367c0,0 0.37232,-3.02687 0.32434,-4.41835c-0.13352,-3.87217 -1.13138,-6.29919 -3.87105,-9.03886c-2.29797,-2.29797 -8.90501,-5.77527 -14.0136,-10.31276c-8.5318,-7.57802 -12.75596,-18.1091 -13.58518,-27.79693c-0.43003,-5.02402 -0.52787,-8.42725 1.38981,-14.02571c3.14799,-9.19025 8.89702,-11.32129 16.56071,-17.29108c3.96943,-3.09208 9.90102,-10.4539 9.90102,-10.4539z" fill="#970001"/><path d="M291.00615,102.06474c1.86627,1.27028 2.94843,3.01703 3.59127,4.79138c0.32975,0.91017 0.40748,2.06138 0.93883,3.02641c1.05647,1.91875 2.63254,3.4654 2.63254,3.4654c0,0 -3.3032,0.46542 -5.05426,0.97743c-1.76053,0.51478 -5.41906,2.04136 -5.41906,2.04136c0,0 -1.89039,-2.80479 -2.25604,-4.51119c-0.37347,-1.74286 -0.02344,-5.7773 -0.02344,-5.7773c0,0 -1.42883,1.44326 -1.71534,2.3675c-0.34067,1.09895 -0.1945,3.79327 -0.1945,3.79327c0,0 -0.60597,-0.53596 -0.83081,-0.88789c-0.24564,-0.38448 -0.58617,-1.32999 -0.58617,-1.32999c0,0 -0.03516,1.94019 0.06867,2.83313c0.10148,0.87268 0.60901,2.58835 0.60901,2.58835c0,0 -0.41144,-0.16208 -0.58207,-0.28721c-0.11262,-0.08259 -0.34205,-0.39048 -0.34205,-0.39048c0,0 0.10604,1.40023 0.43251,2.06279c0.36699,0.74477 1.66215,2.18814 1.66215,2.18814l-4.49736,3.57325c0,0 -3.14423,-2.33981 -3.56793,-5.28178c-0.57938,-4.02298 1.78467,-9.27913 4.55725,-12.2019c3.28765,-3.46574 7.01968,-3.46294 7.01968,-3.46294c0,0 2.45871,-0.32536 3.55711,0.42227z" fill="#ffffff"/><path d="M290.37752,116.96927c2.16454,-0.89911 7.11977,-1.8206 7.11977,-1.8206l-2.82191,2.2969c0,0 4.12383,-0.6066 6.74639,-0.25488c2.48345,0.33306 7.63451,2.42303 11.37415,3.25799c2.51334,0.56116 4.38915,0.01568 4.38915,0.01568c0,0 -0.20564,4.47389 1.40253,8.92569c1.37304,3.80089 4.44181,7.33663 5.99146,10.79021c1.75967,3.92165 2.25301,7.05946 2.25301,7.05946c0,0 1.15505,-1.67179 1.86176,-3.80687c1.74321,-5.26655 -0.74802,-14.17462 -0.74802,-14.17462c0,0 3.5203,0.64951 6.87807,3.00774c3.2718,2.29785 5.31745,4.70843 6.91727,7.51543c1.38913,2.43734 2.49054,5.15741 3.16353,8.56312c0.74252,3.75756 0.62887,7.16406 0.62887,7.16406c0,0 -1.54898,0.19803 -2.25909,0.00138c-0.71178,-0.19711 -2.00659,-1.18265 -2.00659,-1.18265c0,0 -0.60414,-4.79363 -0.98002,-6.87273c-0.32937,-1.82181 -0.76071,-4.8411 -1.86022,-6.62659c-2.01459,-3.27146 -5.03486,-4.87592 -5.03486,-4.87592c0,0 0.6637,2.22467 0.87228,5.19687c0.3359,4.7863 -1.11025,8.47677 2.15025,11.9968c2.38712,2.57712 4.47623,3.43967 7.93912,4.02976c1.44242,0.2458 5.06044,0.25951 7.62434,0.58522c2.46747,0.31346 4.4255,0.61112 5.60474,2.80112c0.50191,0.93213 0.68147,3.21562 0.68147,3.21562c0,0 -0.6327,-1.18157 -1.9867,-1.21031c-2.99709,-0.06363 -8.50461,0.91466 -11.26437,0.26721c-3.32519,-0.7801 -9.12735,-4.30697 -9.12735,-4.30697c0,0 -0.76814,-0.11183 -1.12856,0.83814c-0.25148,0.66285 -0.39394,1.66372 -0.39961,2.65788c-0.00546,0.95688 0.11577,1.90754 0.38845,2.5446c0.75523,1.76446 2.05848,3.54076 2.05848,3.54076c0,0 -1.84331,5.33767 -0.20766,8.04269c1.2357,2.0436 3.68583,3.44183 3.68583,3.44183c0,0 -1.13651,0.67203 -1.43891,1.40787c-0.34755,0.84572 -0.52987,3.38282 -0.52987,3.38282c0,0 -0.85518,-2.76172 -2.35181,-5.47441c-0.86709,-1.57164 -1.9931,-3.08322 -3.17968,-4.14491c-1.81045,-1.6199 -3.72176,-2.52147 -3.72176,-2.52147c0,0 0.28573,2.543 0.95545,5.54668c0.35977,1.61355 1.08194,3.36222 1.47035,4.96049c0.38029,1.56489 0.42977,2.9856 0.5128,3.99413c0.23454,2.84927 -1.29795,7.02398 -1.29795,7.02398c0,0 -0.47832,-0.7034 -0.73069,-1.03988c-0.27127,-0.3617 -1.04121,-1.12577 -1.04121,-1.12577c0,0 0.13438,2.39269 -0.39609,4.73339c-0.49905,2.20209 -2.68833,5.1105 -2.68833,5.1105c0,0 -1.71717,0.74014 -2.64466,1.04567c-0.93189,0.30698 -2.93354,0.79185 -2.93354,0.79185c0,0 1.17661,-1.35037 1.95866,-3.00512c1.57465,-3.33179 1.2768,-6.14859 0.01864,-9.61232c-0.72858,-2.00575 -1.91166,-3.65778 -1.91166,-3.65778c0,0 -0.55399,3.90486 -1.73819,7.20291c-1.55805,4.33921 -3.2535,6.96717 -7.29653,9.18304c-2.3742,1.30123 -4.09045,1.26742 -4.09045,1.26742c0,0 4.278,-2.37215 4.48598,-8.13353c0.29761,-8.24426 -5.54747,-19.04424 -13.13774,-24.65727c-3.71864,-2.74995 -7.37792,-4.72323 -10.75326,-5.58216c-2.15381,-0.54808 -4.26982,-0.29229 -5.95898,-0.63306c-2.53022,-0.51044 -4.87329,-1.81328 -4.87329,-1.81328c0,0 -2.42146,-4.78771 -5.54179,-8.19317c-1.39981,-1.52772 -3.25477,-2.67242 -4.55078,-3.16328c-1.60747,-0.60882 -4.61403,-1.28972 -7.24848,-0.73572c-3.60573,0.75826 -6.74365,2.97017 -6.74365,2.97017c0,0 0.61267,-3.43726 2.77075,-7.00582c1.61572,-2.67171 4.44378,-5.33049 6.63963,-7.14795c2.43148,-2.01249 5.71185,-4.03045 7.58077,-5.72393c3.02177,-2.73812 9.58656,-9.87082 14.58813,-14.19785c3.06526,-2.65186 5.91218,-3.67626 5.91218,-3.67626z" fill="#ffb84e"/><path d="M291.26871,102.19693c0,0 1.23386,1.07964 1.75024,1.71618c0.5991,0.73851 1.57162,2.63942 1.57162,2.63942c0.32735,0.99945 0.33389,2.1613 0.90715,3.20026c1.07395,1.94639 2.79428,3.59514 2.79428,3.59514l-5.97595,1.23215c0,0 -0.84835,-2.29462 -1.00783,-3.70094c-0.25013,-2.20565 -0.03951,-8.68221 -0.03951,-8.68221z" fill="#ffb84e"/><path d="M283.78987,120.17631c0,0 0.74636,0.1756 1.87823,-0.00746c3.53774,-0.57217 5.59879,-1.01355 9.15571,-0.57616c1.64549,0.20235 3.27161,0.41356 5.25835,1.09743c2.46714,0.84924 4.21551,1.8805 4.21551,1.8805c0,0 -2.1581,1.58915 -4.57625,2.01481c-1.94185,0.34182 -5.7721,-0.04469 -9.97488,0.44452c-3.27954,0.38174 -6.56932,1.46027 -9.0903,1.98063c-2.43138,0.50186 -4.1534,0.45277 -4.1534,0.45277z" fill="#970001"/><path d="M312.83102,123.04835c0,0 -6.50901,6.89821 -9.8838,10.13527c-0.98433,0.94415 -2.37067,2.25288 -3.8112,3.37954c-1.01641,0.79494 -2.4238,1.6509 -3.54679,2.58186c-2.01624,1.67147 -3.57542,3.30882 -3.57542,3.30882c0,0 1.09433,-6.62683 2.36054,-9.32682c0.95077,-2.02736 1.82855,-3.00313 3.09797,-4.30222c1.69398,-1.73358 3.9562,-3.55862 6.77376,-4.55385c2.59086,-0.91515 8.58495,-1.22259 8.58495,-1.22259z" fill="#970001"/><path d="M295.96962,128.19207c0,0 -2.58333,2.22335 -4.95345,5.02069c-1.11791,1.31942 -2.19597,3.21019 -3.3499,4.70845c-1.55392,2.01761 -3.0436,3.49163 -3.0436,3.49163c0,0 -0.0173,-4.29532 0.51658,-6.14484c0.84683,-2.93367 2.79171,-4.86748 5.65508,-5.92798c1.49842,-0.55497 5.1753,-1.14793 5.1753,-1.14793z" fill="#970001"/><path d="M306.54624,136.19136c0.20644,1.08036 0.21088,2.1305 0.16385,3.07102c-0.18567,3.71328 -1.14609,6.42445 -4.01215,8.79271c-0.80017,0.66118 -1.98897,1.1704 -2.78605,1.60744c-1.10411,0.60538 -1.96438,1.22344 -1.96438,1.22344c0,0 -0.02725,-1.6968 0.81108,-3.3842c0.55032,-1.10769 1.9895,-3.05617 3.21746,-5.22408c2.07831,-3.66914 4.0913,-7.7355 4.0913,-7.7355c0,0 0.29967,0.71132 0.47888,1.64916z" fill="#970001"/><path d="M278.98804,138.86625c0,0 -1.93166,-1.84628 -4.31049,-1.9488c-1.50388,-0.06481 -2.62439,0.64341 -2.62439,0.64341c0,0 1.40768,2.50226 -0.10285,4.28995c-1.73439,2.05263 -3.65014,0.48288 -3.65014,0.48288c0,0 -1.2127,3.88891 0.62561,6.56853c1.89697,2.7651 4.92228,2.48761 4.92228,2.48761c0,0 -2.60866,0.8982 -4.8135,-0.28049c-1.00851,-0.53914 -2.07083,-1.77355 -2.6891,-2.98382c-0.56627,-1.10849 -0.65219,-2.09765 -0.70641,-3.14398c-0.12205,-2.35517 0.73801,-4.42667 1.98783,-6.17081c1.41532,-1.97509 3.38784,-3.45854 6.05828,-3.4293c0.94006,0.01029 2.03914,0.31081 2.81046,0.8069c1.60515,1.03238 2.49239,2.67794 2.49239,2.67794z" fill="#ffffff"/><path d="M316.4896,133.27934c1.08915,2.48444 2.74837,4.69176 3.31453,6.10715c0.78816,1.97039 1.29486,4.07218 1.64636,6.4659c0.33668,2.29282 -0.76385,4.36104 -0.98068,6.21205c-0.34893,2.97876 -0.34887,5.17166 -0.34887,5.17166c0,0 -5.08771,-0.87484 -8.40111,-13.78732c-3.25596,-12.68865 2.84808,-16.41967 2.84808,-16.41967c0,0 0.5757,3.17992 1.92168,6.25023z" fill="#970001"/><path d="M324.18085,150.78186c0,0 0.44629,0.52194 1.3513,1.0888c1.01887,0.63817 2.57165,1.38076 3.81413,2.40898c1.54317,1.27706 2.5125,2.53255 3.23909,3.99263c0.64599,1.29811 1.13732,2.75794 1.10193,4.53844c-0.06355,3.19822 -1.17841,6.29284 -1.17841,6.29284c0,0 -5.80736,-6.51664 -7.74394,-11.86333c-1.23901,-3.42078 -0.5841,-6.45837 -0.5841,-6.45837z" fill="#970001"/><path d="M316.06102,161.44504c0,0 1.00568,0.77172 2.48019,1.65823c1.7291,1.03958 4.10639,2.21014 5.12797,3.28477c2.45689,2.58447 4.06301,5.39145 4.38612,9.19706c0.15432,1.81763 -0.02594,3.39714 -0.20747,4.60427c-0.34229,2.27629 -2.55249,5.67437 -2.55249,5.67437c0,0 0.07831,-1.96309 -1.82336,-5.90069c-1.52494,-3.15754 -4.76246,-7.20819 -5.9793,-10.2137c-0.52488,-1.2964 -0.35596,-3.2989 -0.58835,-4.81322c-0.31575,-2.05754 -0.84331,-3.4911 -0.84331,-3.4911z" fill="#970001"/><path d="M336.76928,168.13628c0,0 -1.92157,-2.44961 -2.46937,-5.06588c-0.25767,-1.23061 0.067,-3.47848 0.77648,-4.29928c0.78614,-0.84415 1.10831,-0.07796 1.71354,0.17307c1.40558,0.583 3.1383,1.81152 4.69712,2.50642c2.73462,1.21906 4.38634,1.48324 7.38034,1.49868c1.13008,0.00583 4.81104,-0.42372 6.98151,-0.44494c1.85647,-0.01815 2.32163,0.68421 2.32163,0.68421c0,0 0.27627,3.03368 -0.24126,6.17178c-0.38171,2.31451 -1.53849,5.25481 -2.63424,6.92163c-1.33652,2.0331 -3.54595,2.77442 -5.58539,3.10554c-1.89513,0.30769 -3.58462,0.29481 -5.78622,-0.21959c-1.82549,-0.42652 -3.54858,-1.77941 -4.53948,-2.24879c-1.9088,-0.90417 -3.33822,-3.17674 -3.42528,-5.34565c-0.06334,-1.57799 0.81061,-3.43719 0.81061,-3.43719z" fill="#ffffff"/><path d="M338.65081,164.83543c0,0 0.71706,0.05645 1.38372,0.2272c4.2383,1.08556 6.72296,1.88923 11.08634,1.56897c2.25198,-0.16529 4.39423,-0.65107 4.39423,-0.65107c0,0 -1.04292,0.76342 -1.5667,1.0981c-0.48976,0.31295 -1.48078,0.84918 -1.48078,0.84918c0,0 1.01029,0.00927 1.34147,0.12334c0.29982,0.10327 0.56091,0.53189 0.56091,0.53189c0,0 -2.28057,1.10251 -3.24514,1.3862c-0.75131,0.22098 -2.06399,0.17531 -2.06399,0.17531l0.4756,0.74299c0,0 -1.73916,1.19719 -4.57367,0.19463c-2.30344,-0.81472 -4.22995,-3.33192 -4.22995,-3.33192c0,0 -1.10912,-0.40444 -1.76308,-1.26081c-0.34916,-0.45722 -0.31893,-1.65401 -0.31893,-1.65401z" fill="#970001"/><path d="M311.86844,169.99761c0,0 2.67153,2.30438 3.94999,5.35918c0.91153,2.17806 0.91514,5.18007 0.48339,7.24859c-0.35125,1.68287 -1.2818,2.73785 -1.2818,2.73785c0,0 -2.26281,-6.25909 -3.47925,-8.33419c-1.13793,-1.94117 -3.71797,-4.03742 -3.71797,-4.03742z" fill="#970001"/><path d="M280.78922,139.05931c0,0 0.93957,3.34049 -0.09175,6.43546c-1.00613,3.01938 -3.94791,5.78712 -6.74284,6.40913c-2.70984,0.60307 -5.55337,-0.97714 -5.55337,-0.97714c0,0 -3.6061,-1.65758 -3.41974,-7.66317c0.16011,-5.1598 4.50498,-8.67916 4.50498,-8.67916c0,0 1.67544,-2.17111 3.96529,-2.68367c3.20958,-0.71843 5.26487,0.45242 6.41754,1.00533c4.14337,3.50507 2.7937,8.02702 2.7937,8.02702c0,0 -0.72005,-1.00952 -1.05408,-1.34354c-0.28157,-0.28157 -0.81973,-0.53027 -0.81973,-0.53027z" fill="#970001"/><path d="M313.24605,161.02388c0,0 -1.361,-3.7861 -5.52349,-4.44267c-2.89124,-0.45605 -5.07918,1.49749 -5.07918,1.49749c0,0 2.58708,0.20708 2.38074,3.64122c-0.11739,1.95378 -3.07705,2.98089 -4.2783,2.47584c-0.94948,-0.3992 -1.63666,-1.2575 -1.63666,-1.2575c0,0 -1.13601,3.89732 0.58159,6.26446c2.65202,3.65493 7.22315,3.3074 7.22315,3.3074c0,0 -5.94816,1.7147 -9.15857,-1.38546c-2.1265,-2.05347 -3.08547,-7.91568 -0.19797,-11.6831c1.89949,-2.47834 4.2824,-3.47783 6.32648,-3.91845c2.44326,-0.52668 4.42349,-0.16022 5.87995,0.72449c2.74311,1.66627 3.48226,4.7763 3.48226,4.7763z" fill="#ffffff"/><path d="M278.87341,138.91513c0,0 -0.73971,-0.806 -1.86499,-1.3889c-0.9526,-0.49345 -2.23298,-0.63275 -3.3164,-0.43195c-0.91088,0.16883 -1.71867,0.6503 -1.71867,0.6503c0,0 0.61906,0.96676 0.6158,2.09466c-0.00221,0.7643 -0.57998,1.73082 -1.06537,2.20259c-0.43655,0.42429 -0.97135,0.94706 -1.64936,0.98388c-0.89676,0.0487 -1.90556,-0.47572 -1.90556,-0.47572c0,0 -0.50471,2.45228 -0.07496,4.71117c0.21211,1.11488 1.00648,2.15264 1.80205,2.76557c1.58561,1.2216 3.81761,1.39478 3.81761,1.39478c0,0 -2.43356,1.03047 -4.64874,-0.24301c-1.65022,-0.94869 -3.10535,-3.06691 -3.20737,-5.24723c-0.06992,-1.49413 -0.00141,-3.03532 0.38516,-4.31616c0.35146,-1.16447 0.67215,-1.83502 1.24441,-2.66011c1.04013,-1.49967 2.62749,-2.80026 4.73119,-3.48013c1.59495,-0.51545 3.56556,-0.05325 4.73711,0.82252c1.43233,1.07071 2.11811,2.61776 2.11811,2.61776z" fill="#ffffff"/><path d="M305.54687,153.80078c0,0 -0.57414,-0.38037 -1.04559,-0.53545c-0.49819,-0.16387 -1.86778,-0.42285 -1.86778,-0.42285c0,0 1.50825,-1.27127 3.47532,-1.57806c1.68026,-0.26205 3.93561,0.2758 5.29569,1.02442c2.77174,1.52561 3.94708,3.7273 4.05683,6.88926c0.18817,5.4209 -1.03814,9.50089 -5.42532,12.69059c-4.83205,3.51314 -12.04879,2.5237 -14.19153,-3.05299c-0.53123,-1.3826 -0.91552,-3.30175 -0.77791,-5.37683c0,0 0.06426,-1.73343 1.054,-3.64361c1.22166,-2.35775 3.0252,-4.05281 5.49173,-5.03652c1.96206,-0.78251 3.93456,-0.95796 3.93456,-0.95796z" fill="#970001"/><path d="M310.60939,157.87562c-1.03284,-0.70413 -3.05307,-1.37013 -4.45801,-1.2438c-2.20322,0.19812 -3.70241,1.53568 -3.70241,1.53568c1.6193,0 2.75971,1.73029 2.37887,3.30417c-0.33834,1.39821 -1.49382,2.75559 -3.01403,2.89517c-1.39864,0.12842 -2.93809,-1.20911 -2.93809,-1.20911c0,0 -0.57508,1.78835 -0.04651,3.87747c0.4633,1.83117 1.91727,3.93625 3.43049,4.69489c2.07154,1.03855 4.31699,0.73041 4.31699,0.73041c0,0 -3.92679,1.59868 -7.14442,-0.06178c-2.33596,-1.20547 -3.72933,-3.45463 -3.79898,-5.86212c-0.06826,-2.35955 0.43405,-5.27238 1.91852,-7.16063c3.29564,-4.19206 9.73778,-5.75471 13.5299,-2.13761c1.64703,1.57101 1.90218,3.51669 1.90218,3.51669c0,0 -0.70836,-1.74354 -2.3745,-2.8794z" fill="#ffffff"/><path d="M318.36168,234.51191c0,0 4.35464,-0.18566 6.11913,-0.08721c1.28907,0.07193 2.60095,0.07668 3.51446,0.57257c0.40674,0.2208 0.5415,0.47173 0.80116,0.98459c0.40374,0.79742 0.7691,1.33816 1.11466,1.97666c0.47406,0.87594 1.4059,2.12963 1.4059,2.12963c0,0 -3.84905,1.3118 -5.80464,1.64521c-2.26215,0.38568 -6.98297,0.53497 -6.98297,0.53497c0,0 0.03282,-2.40206 0.00593,-3.64592c-0.02887,-1.33514 -0.17363,-4.11049 -0.17363,-4.11049z" fill="#ffffff"/><path d="M388.59525,165.45869c0,0 0.31109,-0.01032 0.50894,0.1733c0.21898,0.20323 0.38871,0.48696 0.67672,0.66668c0.55891,0.34876 1.22931,0.52851 1.22931,0.52851c0,0 0.0302,1.14065 0.30101,1.57267c1.0184,1.62461 2.59742,1.94828 4.43583,1.40356c1.16065,-0.3439 3.47404,-2.21149 3.47404,-2.21149c0,0 -0.49325,2.26163 -1.73806,4.14083c-1.39616,2.10769 -3.86416,3.63488 -6.3001,3.86972c-1.76574,0.17022 -4.18984,-0.91921 -4.66321,-2.5595c-0.17668,-0.6122 -0.06122,-1.32454 0.29524,-2.03452c0.69653,-1.3873 1.46163,-2.04297 1.74216,-3.56975c0.19773,-1.07615 0.03812,-1.98001 0.03812,-1.98001z" fill="#ffffff"/><path d="M275.88375,161.71077c0,0 0.62594,1.10284 1.73133,2.05263c0.96151,0.82616 2.36076,1.50654 3.07979,1.62319c2.50448,0.40631 6.21711,0.16365 9.44629,1.59084c7.2104,3.18677 12.04295,7.1085 15.69431,12.49057c2.08461,3.0727 4.03338,6.49679 5.19212,10.84571c0.89391,3.35495 0.95594,6.77722 -0.00886,9.56693c-0.68216,1.97247 -1.75442,3.62871 -3.95277,4.72131c-0.65998,0.32802 -1.64032,-0.13767 -2.86223,-0.08559c-1.53056,0.06524 -3.26838,0.59933 -3.26838,0.59933c0,0 3.7098,0.40646 3.6933,1.11598c-0.02301,0.98981 -0.71164,2.09154 -1.64325,2.42675c-0.81941,0.29484 -1.81001,0.36627 -1.81001,0.36627c0,0 0.34738,3.35253 -0.96878,4.70018c-0.73211,0.74963 -1.80357,1.21416 -1.80357,1.21416c0,0 1.2227,1.00454 1.99869,2.57478c1.15252,2.33218 1.08808,4.63916 0.7229,6.79143c-0.45745,2.69606 -1.59718,5.1844 -3.81075,7.57588c-0.81557,0.88111 -2.48623,2.25484 -3.87065,3.05682c-0.94128,0.54528 -1.86027,0.71619 -1.86027,0.71619l-1.50685,-1.7076l-0.08374,1.63446c0,0 -2.36477,-1.89778 -3.46235,-3.06228c-1.78799,-1.897 -3.09764,-3.90278 -3.09764,-3.90278c0,0 0.0356,-4.38581 0.16448,-8.87033c0.08895,-3.09474 0.31913,-6.26876 0.21838,-7.94937c-0.29807,-4.97246 -2.64636,-7.74619 -6.43887,-10.97592c-2.01681,-1.71754 -4.45481,-3.21307 -6.97391,-5.08294c-11.91925,-8.84742 -17.67256,-17.90664 -18.48942,-32.72817c-0.25456,-4.61875 0.71548,-7.95287 0.71548,-7.95287c0,0 1.05315,-1.18035 2.84461,-1.99796c4.10948,-1.87554 8.92977,-1.98187 12.47408,-0.17511c3.38661,1.72636 5.53323,5.24223 7.93655,8.82749z" fill="#ffffff"/><path d="M264.24776,161.40526c0,0 -0.51469,4.33638 2.77354,5.80889c2.67654,1.19859 5.31224,-0.20098 6.65162,-0.9387c2.10006,-1.1567 0.6556,3.05912 1.44103,5.32436c0.6427,1.8536 1.94625,3.60415 3.49998,4.27352c2.91016,1.25373 5.78205,0.65251 8.20058,-0.56616c1.1575,-0.58326 1.94261,-3.27731 3.08286,-2.27745c0.36213,0.31755 0.7936,0.7252 0.962,0.99995c0.37543,0.61254 0.66379,2.2259 0.17649,1.698c-0.25496,-0.27621 -1.127,-0.96934 -1.127,-0.96934c0,0 -1.8732,2.42371 -5.73747,3.40408c-2.77724,0.70459 -6.10612,-0.50124 -6.10612,-0.50124c0,0 -1.39457,0.88178 -2.57283,0.76399c-1.63302,-0.16326 -2.17151,-1.79279 -2.23697,-3.43264c-0.04694,-1.17618 0.39749,-2.32423 0.39749,-2.32423l-0.69668,-4.06398c0,0 -2.04575,0.7899 -4.17323,0.74179c-2.82542,-0.0639 -5.34792,-1.51752 -5.45082,-4.34179c-0.0657,-1.8031 0.91554,-3.59903 0.91554,-3.59903z" fill="#970001"/><path d="M270.05345,175.10666c0,0 0.72553,2.88506 1.41573,4.28518c0.42975,0.87178 1.53015,2.27541 2.17018,3.15599c0.18316,0.25199 0.5227,0.597 0.45069,0.91277c-0.26377,1.15671 -1.9704,0.11686 -2.67267,-0.83937c-1.76979,-2.40979 -1.36393,-7.51456 -1.36393,-7.51456z" fill="#970001"/><path d="M276.20746,163.03085c0,0 -1.58622,-0.92708 -2.59387,-1.93455c-0.5516,-0.5515 -0.68587,-1.2084 -0.85866,-1.5615c-0.19707,-0.40271 -0.41938,-0.82457 -0.15403,-1.23521c0.22724,-0.35167 0.93595,-0.72607 0.93595,-0.72607c0,0 0.7266,0.02359 1.20863,0.85269c0.48555,0.83515 1.69421,4.14019 1.69421,4.14019c0,0 1.66851,0.77016 2.65313,1.00289c1.12528,0.26597 4.08146,0.50658 4.08146,0.50658c0,0 0.41786,0.52134 0.45482,0.7986c0.04017,0.30131 -0.2226,0.94311 -0.2226,0.94311c0,0 -1.1796,0.21835 -2.78945,-0.10243c-1.37204,-0.27339 -3.12015,-1.00195 -4.02845,-1.90262c-0.43059,-0.42698 -0.38114,-0.78169 -0.38114,-0.78169z" fill="#970001"/><path d="M254.05931,144.8395c0,0 4.48826,2.55401 8.16819,5.92058c3.62071,3.31239 6.4274,7.42994 7.22881,8.42699c0.24653,0.30672 0.00561,0.54429 -0.00744,0.55066c-0.24215,0.11801 -0.44638,-0.02426 -0.59898,-0.24624c-0.74597,-1.08521 -2.92163,-4.16687 -5.41239,-6.92449c-1.21198,-1.34184 -2.7804,-2.70467 -4.41703,-3.97519c-4.30665,-3.34325 -9.2869,-5.99695 -9.2869,-5.99695c0,0 1.99037,0.86679 4.32573,2.24464z" fill="#970001"/><path d="M265.85163,159.5723c-1.93187,-1.54859 -4.42861,-3.25527 -6.15385,-4.13568c-3.86425,-1.97197 -12.75094,-4.13325 -12.75094,-4.13325c0,0 2.9265,0.36149 6.23756,1.28979c2.54676,0.71402 5.76979,1.91593 8.35027,3.43668c3.94068,2.32236 7.05041,5.05455 7.99219,5.9148c0.16271,0.14862 0.26639,0.32002 0.15301,0.50897c-0.01144,0.01907 -0.23431,0.1666 -0.4485,0.01557c-0.95469,-0.67317 -3.37973,-2.8969 -3.37973,-2.8969z" fill="#970001"/><path d="M254.69743,160.36024c0,0 6.59891,0.49084 9.03942,1.21872c1.33289,0.39753 3.17731,1.8683 3.89491,2.47001c0.17489,0.14665 0.02956,0.46458 -0.17072,0.35512c-0.42363,-0.23151 -0.8977,-0.77321 -1.57355,-1.1991c-0.2841,-0.17903 -1.33805,-0.99949 -2.61119,-1.33631c-3.33089,-0.88123 -8.57886,-1.50843 -8.57886,-1.50843z" fill="#970001"/><path d="M294.43242,176.01088c4.56405,3.25205 8.24893,6.87539 8.24893,6.87539c0,0 -5.28379,-4.83243 -11.22892,-8.20646c-2.08324,-1.18229 -4.33108,-2.12297 -6.34631,-2.7001c-2.02557,-0.58009 -3.84471,-0.82637 -4.53765,-0.90583c-0.21044,-0.02413 -0.31914,-0.16378 -0.35396,-0.37272c-0.0029,-0.01741 0.11634,-0.33951 0.38659,-0.28977c0.69301,0.12757 3.95201,0.5728 6.87895,1.78662c3.61888,1.50078 6.95236,3.81286 6.95236,3.81286z" fill="#970001"/><path d="M290.48943,181.95736c0,0 -1.7312,-2.75628 -4.3659,-5.12784c-1.95471,-1.75948 -3.30414,-2.61985 -5.83309,-3.34171c-0.31708,-0.0905 -0.50722,-0.29441 -0.50722,-0.62416c0,-0.02544 0.48918,-0.26075 0.78771,-0.12121c2.79127,1.30466 4.46385,2.1087 6.53082,4.39364c1.96566,2.17296 3.38769,4.82128 3.38769,4.82128z" fill="#970001"/><path d="M282.8684,168.83405c1.00431,-0.00267 4.64138,0.04241 8.89686,0.75371c4.11263,0.68743 8.80285,2.09832 12.25243,3.83219c2.46485,1.23892 3.88878,2.61562 3.88878,2.61562c0,0 -2.82104,-2.57581 -11.37803,-4.97818c-7.13406,-2.00288 -12.08464,-1.52645 -13.75184,-1.62345c-0.17062,-0.00993 -0.25818,-0.13674 -0.24102,-0.30679c0.01936,-0.1919 0.33282,-0.2931 0.33282,-0.2931z" fill="#970001"/><path d="M260.64294,146.66352c-1.59851,0 -5.00011,0.53758 -5.00011,0.53758c0,0 1.83702,-2.39426 2.86874,-3.47873c0.99373,-1.04454 3.21188,-2.91276 3.21188,-2.91276c0,0 1.24609,0.01808 1.73232,0.00378c0.64701,-0.01903 2.22061,-0.31464 2.22061,-0.31464l-0.1041,6.7437c0,0 -3.30128,-0.57893 -4.92934,-0.57893z" fill="#970001"/><path d="M326.94742,243.02353c0,0 1.13925,0.08538 1.84903,-0.13064c1.02405,-0.31167 3.70587,-1.60643 3.70587,-1.60643c0,0 1.25396,1.57523 2.37432,2.51142c1.62564,1.35841 6.58039,4.9013 6.58039,4.9013c0,0 -1.10251,1.11703 -2.31571,1.93696c-0.79864,0.53975 -1.71801,1.01113 -2.26291,1.09023c-1.60551,0.23306 -3.67115,-1.64576 -2.78699,-3.006c0.12449,-0.19152 0.64585,-0.38423 0.87808,-0.64345c0.35366,-0.39478 0.20371,-0.9694 -0.26159,-1.2232c-0.44421,-0.2423 -0.85518,-0.11941 -1.23518,0.21471c-0.38475,0.3383 -0.7817,0.81247 -0.94465,1.16166c-0.2497,0.53507 0.03263,1.86336 -0.37926,2.24079c-0.96004,0.87972 -2.80948,0.29929 -3.30932,-0.98302c-0.46601,-1.19548 0.50041,-2.34008 1.12836,-2.9236c0.24262,-0.22546 0.44293,-0.57897 0.20873,-0.81316c-0.14905,-0.14905 -0.57248,-0.43315 -0.57248,-0.43315c0,0 -0.57121,-0.13674 -1.08452,0.28665c-0.78137,0.64449 -1.17834,1.48535 -1.35457,2.19501c-0.18992,0.76485 -0.2176,1.50338 -0.2176,1.50338c0,0 -2.20091,-0.51437 -2.17556,-1.78568c0.02058,-1.03188 2.26844,-2.75368 2.26844,-3.24972c0,-0.53748 -0.09288,-1.24405 -0.09288,-1.24405z" fill="#e66818"/><path d="M281.78367,220.07938c0,0 -0.2728,1.24185 0.07758,2.88163c0.29283,1.37046 1.1666,2.98245 1.61432,4.72583c0.47626,1.85455 0.67559,4.05509 1.65197,5.42631c2.1275,2.98786 5.59227,5.32154 5.59227,5.32154l0.24152,1.93214c0,0 -4.53788,3.38046 -9.89722,3.30961c-3.17649,-0.042 -7.11159,-2.51365 -9.28064,-4.30328c-1.49327,-1.23206 -2.79388,-2.47714 -3.50701,-3.60638c-0.27007,-0.42766 -0.57604,-0.85577 -0.76861,-1.35575c-0.30227,-0.78478 -0.65496,-2.08654 -0.65496,-2.08654c0,0 -0.71463,0.9043 -1.22629,0.84812c-0.65081,-0.07146 -1.3775,-0.43253 -1.90512,-0.92909c-1.31091,-1.23376 -0.29315,-3.34876 -0.29315,-3.34876c0,0 0.01292,1.34627 1.20759,2.41517c1.05909,0.9476 2.24797,1.01251 2.24797,1.01251c0,0 1.07062,1.39816 1.75912,1.4726c1.57703,0.31734 2.7554,-1.036 2.7554,-1.036c0,0 -3.60891,0.07136 -3.99336,-2.80744c-0.28789,-2.15582 2.06121,-3.95505 2.06121,-3.95505c0,0 -1.94919,-0.30869 -2.95317,1.13317c-0.77633,1.11494 -0.54883,3.09338 -0.54883,3.09338c0,0 -1.17743,-1.11812 -1.12088,-2.52608c0.17387,-4.32945 6.08105,-2.45683 10.21734,-3.74736c2.65798,-0.82929 6.72293,-3.8703 6.72293,-3.8703z" fill="#e66818"/><path d="M268.99289,230.5243c0.70017,0.16475 1.21358,0.48038 1.37533,1.18125c0.06916,0.29971 -0.10692,0.93267 -0.10692,0.93267c0,0 -1.30009,-0.31325 -1.75495,-0.69988c-0.61542,-0.43375 -1.06869,-1.57112 -1.06869,-1.57112c0,0 1.1669,0.06571 1.55523,0.15707z" fill="#fe86b1"/><path d="M264.28935,230.89223c0,0 0.37909,0.45853 0.66421,0.6743c0.17113,0.1295 0.46829,0.30562 0.80367,0.43895c0.53686,0.21344 1.12798,0.33296 1.12798,0.33296c0,0 -0.79675,0.85069 -1.21771,0.85069c-0.84665,0 -1.24842,-0.54024 -1.52954,-1.25144c-0.12799,-0.32378 0.15139,-1.04547 0.15139,-1.04547z" fill="#fe86b1"/><path d="M267.64599,234.6706c0,0 1.37961,-0.49314 2.02846,-0.44761c1.67384,0.11746 2.45406,1.27203 3.56915,2.19783c1.31239,1.0896 3.09837,2.08982 3.38343,4.04399c0.12414,0.851 -1.01236,1.49025 -1.01236,1.49025c0,0 -1.03217,-0.51231 -2.31587,-1.40264c-1.7096,-1.18572 -3.88063,-2.99867 -5.10107,-4.74582c-0.45362,-0.6494 -0.55174,-1.13602 -0.55174,-1.13602z" fill="#fe86b1"/><path d="M265.9438,229.00289l0.01381,1.16917c0,0 -0.41907,-0.35273 -0.57433,-0.55576c-0.11984,-0.15672 -0.31853,-0.67904 -0.31853,-0.67904z" fill="#fe86b1"/><path d="M388.85277,165.39975c0,0 -2.31296,-2.11727 -4.38394,-2.14951c-2.69731,-0.04199 -5.9866,1.14832 -8.42081,2.68515c-1.71446,1.08243 -3.95619,2.88455 -4.14532,4.31563c-0.33879,2.56343 2.10702,4.93325 4.08323,8.09287c2.5547,4.08452 4.1482,13.13143 2.21058,17.90815c-1.02861,2.53575 -2.06447,5.35089 -3.8981,7.7745c-2.56753,3.39364 -6.97341,6.68951 -11.05615,9.10145c-2.74314,1.62055 -5.30856,2.71469 -7.19197,3.64922c-1.83876,0.91237 -2.67744,1.59863 -2.67744,1.59863c0,0 4.09113,1.89685 5.49969,6.18002c1.18118,3.59176 -0.07571,10.9153 0.54372,15.44364c0.82031,5.99678 3.5445,7.66726 3.22382,11.3905c-0.21176,2.45857 -1.80399,3.54069 -3.75157,5.05605c-1.53488,1.19425 -3.03487,2.4738 -5.03793,2.55237c-1.38425,0.0543 -2.834,-0.40634 -3.02823,-1.53695c-0.2251,-1.31029 1.36628,-3.08326 1.36628,-3.08326c0,0 -1.27703,-0.46775 -2.28715,0.37152c-1.19721,0.99471 -0.80109,2.94892 -0.80109,2.94892c0,0 -2.72079,1.87851 -4.03469,-0.89349c-0.86715,-1.82949 2.16549,-4.11038 2.16549,-4.11038c0,0 -0.40911,-0.24687 -0.88665,-0.30109c-0.44808,-0.05088 -1.13054,0.2559 -1.41764,0.5111c-0.27351,0.24313 -0.921,0.62812 -1.18885,1.2343c-0.45163,1.02213 -0.46584,2.35213 -0.46584,2.35213c0,0 -0.64558,0.16433 -1.11384,-0.33005c-0.20969,-0.22139 -0.47665,-0.94614 -0.47391,-1.23595c0.00825,-0.87517 1.31937,-2.03386 1.64473,-2.79315c0.51647,-1.20529 0.3958,-2.28173 0.3958,-2.28173c0,0 0.09169,-1.15818 -1.02166,-2.24073c-1.21016,-1.17669 -3.5164,-2.55249 -5.53474,-4.12846c-1.60465,-1.25296 -2.92054,-2.67516 -4.12439,-3.91826c-1.69112,-1.74626 -1.94103,-3.64759 -4.17134,-4.61456c-1.10085,-0.47729 -2.5832,-0.44203 -4.06308,-0.52909c-1.81804,-0.10694 -6.51615,0.15983 -6.51615,0.15983c0,0 -0.24668,-1.57486 -1.22546,-2.7953c-0.82216,-1.02515 -2.46087,-1.10141 -2.46087,-1.10141c0,0 1.70156,1.58634 1.90319,4.48088c0.23385,3.35705 0.23581,6.68454 0.26265,9.83439c0.03108,3.64744 -0.00343,7.0567 -1.18669,9.99787c-0.83434,2.07388 -1.59813,3.3679 -3.69146,5.14772c-1.61178,1.37039 -3.58717,1.79746 -5.54229,1.81105c-2.22911,0.0155 -4.39707,-0.61095 -5.35861,-2.8231c-0.97635,-2.24622 1.23704,-4.3002 1.23704,-4.3002c0,0 -1.26798,-0.72472 -2.18869,0.33164c-1.23972,1.42238 -0.9576,4.01047 -0.9576,4.01047c0,0 -3.02924,3.52374 -5.55279,-0.67552c-1.173,-1.9519 1.60541,-5.17588 1.60541,-5.17588c0,0 -1.27475,-0.45742 -2.45283,0.79669c-1.4876,1.58359 -1.16946,4.18397 -1.16946,4.18397c0,0 -1.86537,-0.53201 -1.93618,-2.69897c-0.08232,-2.51924 1.92326,-3.18086 2.75304,-5.24236c0.82737,-2.05552 0.6674,-4.46237 0.6583,-5.82719c-0.0123,-1.84529 -0.18119,-4.55222 -0.62898,-6.45768c-0.345,-1.46804 -0.90563,-2.50462 -0.90563,-2.50462c0,0 7.5683,-2.07876 9.50706,-11.40128c1.20482,-5.79337 -2.89819,-9.33544 -2.89819,-9.33544c0,0 2.25411,-0.9116 2.72164,-2.39737c0.49481,-1.57247 -0.00491,-3.33793 -0.00491,-3.33793c0,0 2.35514,-0.47546 2.87459,-0.97233c0.61985,-0.59289 0.59678,-2.25664 0.59678,-2.25664c0,0 7.06666,0.13099 10.59701,-0.03022c3.89181,-0.17773 11.86678,-1.08292 11.86678,-1.08292c0,0 4.33164,1.08407 9.96437,1.67017c9.90137,1.03024 20.37827,-0.40103 27.18174,-4.86484c2.70471,-1.77458 4.19347,-2.41556 5.80344,-6.03079c1.2547,-2.81747 1.47504,-7.68593 -0.28342,-11.23704c-1.74283,-3.51956 -7.97594,-11.71937 -7.97594,-11.71937c0,0 1.27431,-2.72666 1.55708,-4.24198c0.31708,-1.69916 0.54456,-5.46476 0.54456,-5.46476c0,0 9.72187,-7.62463 15.89283,-8.72352c5.03876,-0.89727 11.70723,-0.91269 14.55752,1.98989c1.60108,1.63045 2.11659,5.37362 0.17088,7.49009c-1.61996,1.76213 -5.27677,1.77451 -5.27677,1.77451z" fill="#ffb84e"/><path d="M304.72782,205.85913c0,0 9.22333,-0.08701 12.90223,-0.50308c3.22544,-0.36478 4.92635,-1.05927 7.5534,-1.01506c1.20993,0.02036 3.17503,0.91738 4.65778,1.10828c2.42551,0.31227 5.8825,0.80143 5.8825,0.80143c0,0 -6.26062,5.86865 -14.06714,5.99364c-10.32778,0.16536 -16.92877,-6.3852 -16.92877,-6.3852z" fill="#e66818"/><path d="M313.92813,204.66308c0,0 2.90934,6.08381 2.28928,9.28487c-1.57129,8.11181 -5.84754,8.57964 -5.84754,8.57964c0,0 1.31453,-5.16242 0.75518,-8.66769c-0.62154,-3.89501 -3.24323,-8.401 -3.24323,-8.401z" fill="#970001"/><path d="M319.60854,204.7454c0,0 2.13472,-0.6976 3.24526,-0.74886c1.25097,-0.05773 3.99018,0.31894 3.99018,0.31894c0,0 -0.14527,3.73308 -0.82899,6.07822c-0.59566,2.04311 -2.65609,4.08433 -2.65609,4.08433c0,0 -0.91522,-0.72854 -1.22039,-1.48776c-0.26211,-0.65207 -0.53807,-2.13436 -0.99373,-3.56633c-0.68027,-2.13789 -1.53623,-4.67854 -1.53623,-4.67854z" fill="#970001"/><path d="M337.99444,206.33702c0,0 2.73439,4.78399 1.10161,10.95112c-1.11498,4.21138 -7.6876,8.34949 -7.6876,8.34949c0,0 1.37113,-7.12922 1.1977,-10.62932c-0.16105,-3.25033 -2.20389,-9.67749 -2.20389,-9.67749z" fill="#970001"/><path d="M348.87962,206.10834c0,0 0.51171,1.28409 0.71424,2.38342c0.2449,1.32934 0.11058,2.89953 -0.45451,4.31936c-1.3244,3.32769 -4.19303,6.24051 -4.19303,6.24051c0,0 -0.25828,-6.3594 -0.528,-8.61834c-0.10043,-0.84111 -0.72667,-1.4568 -0.94729,-2.18838c-0.19214,-0.63713 -0.18949,-1.95364 -0.18949,-1.95364z" fill="#970001"/><path d="M323.99921,219.23458c0,0 0.41044,1.61163 0.38341,2.3821c-0.08867,2.527 -0.81354,4.07843 -2.8813,5.53376c-1.64252,1.15604 -3.72221,1.32283 -3.72221,1.32283c0,0 1.37862,-1.59277 1.82809,-3.69122c0.39379,-1.8385 0.69322,-3.64394 1.20697,-4.40701c0.68091,-1.01136 3.18505,-1.14046 3.18505,-1.14046z" fill="#970001"/><path d="M316.86438,240.54758c0,0 -2.92052,0.22473 -5.40215,-0.04218c-2.78358,-0.29938 -4.11746,-1.46504 -6.68271,-2.5864c-1.48637,-0.64974 -3.00804,-1.03031 -3.00804,-1.03031c0,0 1.43684,-1.32057 3.02695,-1.41694c1.75545,-0.10639 6.06415,0.30842 9.03677,0.49145c1.70317,0.10487 3.02918,0.01076 3.02918,0.01076z" fill="#970001"/><path d="M306.61052,249.61083c-2.36002,-0.22901 -7.58319,-3.66638 -7.58319,-3.66638c0,0 2.85269,-2.34346 7.79312,-1.75297c5.0204,0.9929 6.29358,3.03358 6.29358,3.03358c0,0 -2.43167,2.78089 -6.50352,2.38578z" fill="#970001"/><path d="M340.0359,230.38878c-3.92192,3.95412 -8.07861,2.93251 -8.07861,2.93251c0,0 1.01823,-1.58046 2.65259,-3.29309c1.14018,-1.19479 2.86196,-2.45391 3.55844,-3.28563c1.381,-1.64916 3.21059,-4.67236 3.21059,-4.67236c0,0 2.7227,4.21947 -1.34301,8.31856z" fill="#970001"/><path d="M355.07229,218.84125c0,0 2.02418,1.66746 2.64556,2.61984c0.63748,0.97705 1.4341,2.76787 1.4341,2.76787c0,0 -2.52357,4.66514 -5.18851,6.61114c-2.4742,1.80672 -9.383,3.21296 -9.383,3.21296c0,0 4.82282,-5.261 6.52029,-7.84688c0.93142,-1.41889 1.55576,-3.86163 2.01579,-5.53339c0.30157,-1.09593 1.95577,-1.83154 1.95577,-1.83154z" fill="#970001"/><path d="M359.49038,236.61428c0,0 -1.05894,2.70203 -2.9624,4.46578c-0.90052,0.83442 -1.97408,1.41333 -3.26285,1.63256c-0.69816,0.11877 -1.52412,0.00273 -2.27253,0.05937c-0.74775,0.05659 -1.58867,0.45052 -2.29675,0.46039c-2.27036,0.03164 -4.02395,-0.48946 -4.02395,-0.48946c0,0 2.53604,-0.59519 5.00898,-2.64108c0.91967,-0.76085 1.31822,-1.9122 2.20842,-2.85564c1.37264,-1.45473 2.88374,-2.75864 3.67319,-3.24217c1.5447,-0.94613 3.74495,-0.22537 3.74495,-0.22537z" fill="#970001"/><path d="M362.14308,247.68241c0,0 -2.16332,1.75283 -3.30914,2.03929c-1.17093,0.29274 -3.64274,-0.30132 -3.64274,-0.30132c0,0 1.99092,-1.41911 2.8817,-2.25051c0.93638,-0.87396 2.60663,-2.87192 2.60663,-2.87192z" fill="#970001"/><path d="M359.4355,203.7758c0,0 1.60269,1.9457 1.25026,4.55636c-0.52741,3.90689 -2.62234,5.13968 -2.62234,5.13968c0,0 -0.93855,-0.42456 -1.66062,-1.54594c-0.45145,-0.7011 -0.60849,-1.8682 -0.9891,-2.70476c-0.32909,-0.72333 -1.27924,-1.5182 -1.69514,-2.23231c-0.42985,-0.73805 -0.32022,-1.38361 -0.32022,-1.38361z" fill="#970001"/><path d="M366.88461,201.86783l0.25612,-0.63155c0,0 2.6264,-0.01271 3.23324,0.18901c1.97237,0.65561 3.15737,4.42693 3.15737,4.42693l-4.45469,3.61315c0,0 -0.32919,-2.22369 -0.94541,-3.39601c-0.63342,-1.20505 -3.20742,-3.94006 -3.20742,-3.94006z" fill="#970001"/><path d="M370.05541,189.04879c0,0 4.63344,-0.83296 6.75728,0.74515c2.25859,1.67825 1.92343,4.46875 1.92343,4.46875l-1.46355,-0.73178l0.27442,2.10386c0,0 -2.51855,-1.84164 -3.66211,-2.12754c-1.17298,-0.29324 -3.98495,-0.07694 -3.98495,-0.07694z" fill="#970001"/><path d="M367.50334,182.52683c0,0 2.36961,-3.52929 3.64287,-4.15826c1.25726,-0.62106 5.05613,-0.19582 5.05613,-0.19582l2.88137,6.21096c0,0 -1.64997,0.11503 -2.62729,-0.17508c-1.17097,-0.3476 -1.56552,-1.02597 -3.56544,-1.21379c-1.46277,-0.13739 -4.03385,0.38268 -4.03385,0.38268z" fill="#970001"/><path d="M371.05246,171.85203c0,0 -2.54771,0.65189 -3.67768,1.17554c-0.67549,0.31303 -1.55403,1.35514 -2.34792,1.85672c-0.77594,0.49024 -1.87759,0.44368 -1.87759,0.44368l-1.9758,-2.65269c0,0 0.56802,-1.87933 1.26348,-2.44439c1.71191,-1.39093 3.92774,-1.91188 5.90062,-0.92544c1.00931,0.50466 2.71489,2.54658 2.71489,2.54658z" fill="#970001"/><path d="M366.66181,161.51568c0,0 1.56259,-0.96075 2.31381,-1.17109c0.77271,-0.21635 2.25979,-0.10952 2.25979,-0.10952l-1.0062,-1.09766c0,0 3.73591,-0.55701 6.07419,1.5545c1.60158,1.44625 1.24358,4.66561 1.24358,4.66561l-4.37237,2.97284c0,0 -1.1457,-3.48874 -2.23985,-4.55206c-0.50277,-0.48861 -1.38479,-1.10898 -2.27572,-1.53248c-1.00546,-0.47793 -1.99726,-0.73013 -1.99726,-0.73013z" fill="#970001"/><path d="M379.92526,155.84442c0,0 1.32746,-0.84668 1.84365,-0.72684c0.93156,0.21626 3.5532,2.09892 3.5532,2.09892l-0.54883,-1.92092c0,0 3.44137,1.21552 3.75967,3.71061c0.3062,2.40026 -1.56434,4.88777 -1.56434,4.88777l-5.03096,-0.18294c0,0 1.56806,-2.14643 0.98462,-4.10051c-0.536,-1.79521 -2.99701,-3.76609 -2.99701,-3.76609z" fill="#970001"/></g><g stroke-linecap="round"><path d="M201.56885,123.52018c0,0 5.93159,7.36182 9.90102,10.4539c7.66369,5.9698 13.41272,8.10083 16.56071,17.29109c1.91768,5.59847 1.81984,9.0017 1.38981,14.02571c-0.82922,9.68783 -5.05339,20.21892 -13.58519,27.79693c-5.10859,4.53749 -11.71563,8.01479 -14.0136,10.31276c-2.73967,2.73968 -3.73753,5.16669 -3.87105,9.03887c-0.04798,1.39147 0.32434,4.41835 0.32434,4.41835c0,0 1.55587,2.41831 2.65184,3.32367c2.16131,1.78542 4.48702,2.65458 6.76953,2.83495c1.74905,0.13821 3.38451,-0.37006 5.43269,0.27776c1.50389,0.47566 3.60951,2.622 3.60951,2.622c0,0 1.23203,1.02229 1.76305,2.47585c0.51593,1.41225 0.34339,3.24053 -0.46266,4.33351c-1.48012,2.00697 -4.39215,2.52352 -4.39215,2.52352c0,0 0.00297,1.11117 -1.5419,2.77061c-3.00725,3.23023 -9.69711,7.93582 -14.58376,7.62055c-3.005,-0.19387 -8.89133,-3.59504 -8.89133,-3.59504l0.3413,7.47771c0,0 2.36903,2.24663 3.10865,4.88368c0.48091,1.71465 -0.09394,3.77781 -1.20308,4.86887c-1.04921,1.03211 -3.03255,0.40381 -3.03255,0.40381c0,0 -2.23413,2.04881 -3.54755,2.21409c-2.88295,0.36278 -4.13835,-1.93959 -4.13835,-1.93959c0,0 -0.80077,3.15155 -4.02206,3.78166c-2.7838,0.54453 -7.58726,-1.00599 -9.6816,-2.5387c-2.96526,-2.1701 -4.48759,-7.28294 -4.89919,-10.58369c-0.46492,-3.72827 0.21156,-6.92086 0.21156,-6.92086c0,0 -1.93508,0.0663 -3.01946,0.0663c-1.26627,0 -4.11746,-0.2745 -4.11746,-0.2745c0,0 2.63638,1.91026 2.39199,4.85622c-2.78709,3.66804 -4.03896,2.00619 -4.03896,2.00619c0,0 -1.71773,1.93518 -3.03703,2.09935c-2.22375,0.30021 -3.0019,-1.00136 -3.0019,-1.00136c0,0 -1.06957,1.99753 -3.83599,1.86409c-2.4012,-0.30683 -4.9479,-2.68758 -4.9479,-2.68758c0,0 1.40401,1.81929 1.73597,3.3911c0.46716,5.02271 -4.07385,3.99181 -4.07385,3.99181c0,0 -0.21177,1.35627 -2.09236,1.78916c-3.26687,0.75304 -3.25567,-0.93718 -3.25567,-0.93718c0,0 -1.05256,1.84311 -4.12918,1.80956c-2.70902,-0.04464 -5.6346,-1.83072 -7.59973,-3.69242c-3.86223,-3.41788 -3.77882,-6.04974 -2.72239,-9.34034c0.74317,-2.31482 2.33395,-5.46296 2.67098,-8.06346c0.56304,-4.34431 -0.71887,-10.26048 0.34128,-14.59312c1.00472,-4.1061 4.47251,-6.54028 4.47251,-6.54028c0,0 -12.14853,-4.29327 -19.01214,-13.16096c-5.82351,-7.52389 -6.85283,-19.21191 -2.83253,-26.56597c1.61343,-2.95135 4.97969,-5.95349 4.76413,-8.1986c-0.14031,-1.46144 -1.49457,-2.71841 -3.35579,-3.69953c-1.95078,-1.02833 -4.60464,-1.27202 -5.69646,-1.69016c-2.55143,-0.97715 -4.47917,-0.19713 -3.63634,2.40177c0.49437,1.52439 2.05457,3.32622 1.73551,5.16512c-0.29017,1.67242 -2.06103,3.14844 -3.42192,3.83426c-2.7029,1.36213 -6.58808,-0.1832 -8.76266,-1.97119c-4.49384,-3.69493 -4.78802,-8.8884 -2.63034,-14.29131c0.73384,-1.83758 2.17971,-3.40812 3.11706,-4.40287c4.82998,-5.12571 10.5076,-5.26574 17.32193,-3.48625c8.80907,2.30039 18.59051,8.19552 19.78146,15.62536c0.36036,2.24815 -1.06326,4.63683 -2.27898,7.10894c-1.64634,3.34778 -4.87773,6.64124 -5.73748,8.63892c-2.47699,5.75536 -2.6989,11.24524 2.45953,14.80195c4.73669,3.26592 12.552,5.95603 19.02084,6.34181c10.32229,0.61559 18.60161,-2.30581 18.60161,-2.30581c0,0 -3.15038,-1.35047 -6.20292,-3.77837c-2.65292,-2.11006 -4.86868,-5.29306 -5.82938,-8.26362c-1.38343,-4.27772 -1.14354,-8.64934 -1.14354,-8.64934l-2.02557,-1.88367c-3.37947,2.40676 -9.23494,1.11213 -12.64104,-0.55711c-9.79539,-4.80045 -11.86497,-24.12712 -1.02842,-25.37748c2.39322,-0.27614 8.72852,0.9839 8.72852,0.9839c0,0 -0.97667,-9.25032 5.25455,-18.78824c4.21359,-6.4496 10.94205,-13.46733 18.6325,-17.28931c11.02026,-5.47681 22.91926,-6.36532 22.91926,-6.36532c0,0 1.86956,-0.52588 3.4809,-4.20462c0.9561,-2.18279 0.89179,-3.98754 1.31758,-5.84395c0.34498,-1.50408 1.09635,-3.08441 2.30246,-4.59204c0.59444,-0.74304 1.98657,-1.38086 3.32288,-1.65015c2.68074,-0.54023 4.53085,0.2673 6.84751,1.72034c3.82152,2.39689 5.3472,4.79373 6.78706,8.32167c1.3676,3.35092 2.71693,9.22947 1.77861,12.84178c-0.82395,3.17201 -3.87726,4.31452 -3.87726,4.31452z" data-paper-data="{&quot;index&quot;:null}" fill="#970001"/><path d="M192.55095,101.64247c0,0 3.73202,-0.0028 7.01968,3.46294c2.77259,2.92277 5.13664,8.17891 4.55726,12.2019c-0.4237,2.94198 -3.56793,5.28178 -3.56793,5.28178l-4.49737,-3.57325c0,0 1.29515,-1.44336 1.66215,-2.18814c0.32647,-0.66256 0.43251,-2.06279 0.43251,-2.06279c0,0 -0.22942,0.30789 -0.34205,0.39048c-0.17062,0.12513 -0.58207,0.28721 -0.58207,0.28721c0,0 0.50753,-1.71567 0.60901,-2.58835c0.10384,-0.89294 0.06867,-2.83313 0.06867,-2.83313c0,0 -0.34052,0.9455 -0.58616,1.32999c-0.22484,0.35193 -0.83081,0.88789 -0.83081,0.88789c0,0 0.14617,-2.69432 -0.1945,-3.79327c-0.28651,-0.92424 -1.71534,-2.3675 -1.71534,-2.3675c0,0 0.35003,4.03444 -0.02344,5.7773c-0.36566,1.70639 -2.25605,4.51119 -2.25605,4.51119c0,0 -3.65853,-1.52659 -5.41906,-2.04136c-1.75107,-0.51201 -5.05426,-0.97742 -5.05426,-0.97742c0,0 1.57608,-1.54665 2.63254,-3.46541c0.53134,-0.96503 0.60908,-2.11623 0.93883,-3.02641c0.64284,-1.77435 1.72499,-3.52109 3.59127,-4.79137c1.0984,-0.74763 3.55711,-0.42227 3.55711,-0.42227z" data-paper-data="{&quot;index&quot;:null}" fill="#ffffff"/><path d="M189.62247,116.96929c0,0 2.84692,1.02439 5.91219,3.67625c5.00158,4.32703 11.56637,11.45973 14.58813,14.19785c1.86892,1.69348 5.14929,3.71144 7.58077,5.72393c2.19585,1.81746 5.02391,4.47624 6.63963,7.14794c2.15809,3.56856 2.77076,7.00582 2.77076,7.00582c0,0 -3.13792,-2.21192 -6.74365,-2.97018c-2.63446,-0.554 -5.64102,0.12689 -7.24848,0.73571c-1.29601,0.49086 -3.15098,1.63556 -4.55078,3.16328c-3.12034,3.40546 -5.5418,8.19317 -5.5418,8.19317c0,0 -2.34307,1.30284 -4.87329,1.81328c-1.68916,0.34077 -3.80517,0.08497 -5.95898,0.63306c-3.37535,0.85892 -7.03463,2.8322 -10.75327,5.58216c-7.59027,5.61303 -13.43536,16.41302 -13.13774,24.65728c0.20799,5.76137 4.48598,8.13352 4.48598,8.13352c0,0 -1.71624,0.03382 -4.09045,-1.26742c-4.04303,-2.21587 -5.73849,-4.84383 -7.29654,-9.18304c-1.1842,-3.29805 -1.73819,-7.20291 -1.73819,-7.20291c0,0 -1.18308,1.65203 -1.91166,3.65778c-1.25817,3.46373 -1.55602,6.28052 0.01864,9.61231c0.78206,1.65475 1.95866,3.00512 1.95866,3.00512c0,0 -2.00165,-0.48487 -2.93354,-0.79185c-0.9275,-0.30553 -2.64466,-1.04567 -2.64466,-1.04567c0,0 -2.18928,-2.9084 -2.68833,-5.11049c-0.53046,-2.3407 -0.39609,-4.73339 -0.39609,-4.73339c0,0 -0.76993,0.76407 -1.04121,1.12578c-0.25236,0.33648 -0.73069,1.03987 -0.73069,1.03987c0,0 -1.53249,-4.17471 -1.29795,-7.02398c0.08303,-1.00853 0.1325,-2.42924 0.51279,-3.99413c0.38841,-1.59827 1.11059,-3.34694 1.47035,-4.96049c0.66972,-3.00368 0.95546,-5.54668 0.95546,-5.54668c0,0 -1.91132,0.90157 -3.72177,2.52148c-1.18658,1.06169 -2.31259,2.57328 -3.17968,4.14491c-1.49663,2.71269 -2.35181,5.4744 -2.35181,5.4744c0,0 -0.18232,-2.5371 -0.52987,-3.38282c-0.3024,-0.73584 -1.43891,-1.40787 -1.43891,-1.40787c0,0 2.45012,-1.39823 3.68583,-3.44183c1.63565,-2.70502 -0.20766,-8.04269 -0.20766,-8.04269c0,0 1.30325,-1.7763 2.05849,-3.54076c0.27267,-0.63706 0.39391,-1.58772 0.38845,-2.5446c-0.00567,-0.99416 -0.14812,-1.99502 -0.39961,-2.65787c-0.36042,-0.94997 -1.12856,-0.83814 -1.12856,-0.83814c0,0 -5.80215,3.52686 -9.12735,4.30697c-2.75977,0.64745 -8.26728,-0.33083 -11.26437,-0.26721c-1.354,0.02874 -1.9867,1.21031 -1.9867,1.21031c0,0 0.17957,-2.28349 0.68148,-3.21562c1.17923,-2.18999 3.13727,-2.48766 5.60473,-2.80112c2.5639,-0.32571 6.18192,-0.33943 7.62434,-0.58522c3.4629,-0.59009 5.55201,-1.45264 7.93912,-4.02976c3.2605,-3.52003 1.81436,-7.2105 2.15026,-11.9968c0.20859,-2.97219 0.87228,-5.19687 0.87228,-5.19687c0,0 -3.02026,1.60445 -5.03486,4.87592c-1.09952,1.78548 -1.53085,4.80478 -1.86023,6.62659c-0.37589,2.0791 -0.98002,6.87274 -0.98002,6.87274c0,0 -1.29482,0.98555 -2.00659,1.18265c-0.71011,0.19665 -2.2591,-0.00138 -2.2591,-0.00138c0,0 -0.11365,-3.40649 0.62887,-7.16405c0.67299,-3.40571 1.77441,-6.12579 3.16353,-8.56313c1.59982,-2.807 3.64548,-5.21758 6.91727,-7.51543c3.35777,-2.35823 6.87807,-3.00774 6.87807,-3.00774c0,0 -2.49122,8.90807 -0.74802,14.17461c0.7067,2.13508 1.86176,3.80687 1.86176,3.80687c0,0 0.49334,-3.13781 2.25302,-7.05946c1.54966,-3.45358 4.61842,-6.98932 5.99146,-10.79021c1.60817,-4.4518 1.40253,-8.92569 1.40253,-8.92569c0,0 1.87581,0.54548 4.38915,-0.01568c3.73964,-0.83496 8.8907,-2.92493 11.37415,-3.25799c2.62256,-0.35172 6.74639,0.25488 6.74639,0.25488l-2.82191,-2.2969c0,0 4.95523,0.92149 7.11977,1.8206z" data-paper-data="{&quot;index&quot;:null}" fill="#ffb84e"/><path d="M188.73128,102.19694c0,0 0.21062,6.47656 -0.0395,8.68221c-0.15948,1.40633 -1.00783,3.70094 -1.00783,3.70094l-5.97595,-1.23216c0,0 1.72033,-1.64875 2.79428,-3.59514c0.57327,-1.03896 0.5798,-2.20082 0.90715,-3.20027c0,0 0.97252,-1.9009 1.57162,-2.63942c0.51638,-0.63655 1.75024,-1.71618 1.75024,-1.71618z" data-paper-data="{&quot;index&quot;:null}" fill="#ffb84e"/><path d="M203.49717,127.46336c0,0 -1.72202,0.0491 -4.1534,-0.45277c-2.52098,-0.52035 -5.81076,-1.59889 -9.0903,-1.98063c-4.20278,-0.48921 -8.03304,-0.1027 -9.97489,-0.44452c-2.41815,-0.42566 -4.57626,-2.01481 -4.57626,-2.01481c0,0 1.74837,-1.03126 4.21551,-1.8805c1.98674,-0.68388 3.61286,-0.89509 5.25836,-1.09744c3.55692,-0.43739 5.61797,0.00399 9.15571,0.57616c1.13187,0.18306 1.87823,0.00745 1.87823,0.00745z" data-paper-data="{&quot;index&quot;:null}" fill="#970001"/><path d="M175.75393,124.27094c2.81755,0.99523 5.07978,2.82028 6.77376,4.55385c1.26942,1.29909 2.1472,2.27486 3.09797,4.30222c1.26621,2.69998 2.36054,9.32682 2.36054,9.32682c0,0 -1.55919,-1.63736 -3.57543,-3.30883c-1.12299,-0.93096 -2.53038,-1.78692 -3.54679,-2.58185c-1.44054,-1.12665 -2.82688,-2.43538 -3.81121,-3.37954c-3.3748,-3.23705 -9.88381,-10.13527 -9.88381,-10.13527c0,0 5.9941,0.30743 8.58496,1.22259z" data-paper-data="{&quot;index&quot;:null}" fill="#970001"/><path d="M184.03037,128.19207c0,0 3.67688,0.59296 5.1753,1.14793c2.86337,1.06051 4.80825,2.99432 5.65508,5.92798c0.53388,1.84952 0.51658,6.14484 0.51658,6.14484c0,0 -1.48968,-1.47401 -3.0436,-3.49163c-1.15393,-1.49826 -2.23198,-3.38903 -3.3499,-4.70845c-2.37012,-2.79734 -4.95346,-5.02069 -4.95346,-5.02069z" data-paper-data="{&quot;index&quot;:null}" fill="#970001"/><path d="M173.93263,134.54219c0,0 2.01299,4.06636 4.0913,7.7355c1.22796,2.16791 2.66715,4.11639 3.21746,5.22408c0.83833,1.6874 0.81108,3.3842 0.81108,3.3842c0,0 -0.86027,-0.61806 -1.96438,-1.22344c-0.79708,-0.43704 -1.98589,-0.94626 -2.78605,-1.60745c-2.86605,-2.36826 -3.82648,-5.07943 -4.01215,-8.7927c-0.04703,-0.94053 -0.04259,-1.99067 0.16385,-3.07103c0.1792,-0.93785 0.47888,-1.64916 0.47888,-1.64916z" data-paper-data="{&quot;index&quot;:null}" fill="#970001"/><path d="M201.01197,138.86627c0,0 0.88724,-1.64556 2.49239,-2.67794c0.77132,-0.49609 1.87039,-0.7966 2.81046,-0.8069c2.67045,-0.02925 4.64297,1.4542 6.05829,3.42929c1.24982,1.74414 2.10988,3.81564 1.98782,6.17081c-0.05422,1.04632 -0.14014,2.03549 -0.7064,3.14398c-0.61827,1.21027 -1.6806,2.44468 -2.6891,2.98382c-2.20484,1.17869 -4.8135,0.28049 -4.8135,0.28049c0,0 3.02532,0.2775 4.92228,-2.48761c1.83831,-2.67961 0.62562,-6.56853 0.62562,-6.56853c0,0 -1.91576,1.56975 -3.65014,-0.48288c-1.51053,-1.7877 -0.10285,-4.28995 -0.10285,-4.28995c0,0 -1.12051,-0.70822 -2.62439,-0.64341c-2.37884,0.10253 -4.31049,1.9488 -4.31049,1.9488z" data-paper-data="{&quot;index&quot;:null}" fill="#ffffff"/><path d="M165.43208,127.02911c0,0 6.10404,3.73101 2.84808,16.41967c-3.3134,12.91248 -8.40111,13.78732 -8.40111,13.78732c0,0 0.00006,-2.19289 -0.34887,-5.17166c-0.21683,-1.85101 -1.31736,-3.91924 -0.98068,-6.21205c0.3515,-2.39372 0.8582,-4.49551 1.64635,-6.4659c0.56616,-1.41539 2.22538,-3.6227 3.31453,-6.10715c1.34599,-3.0703 1.92168,-6.25023 1.92168,-6.25023z" data-paper-data="{&quot;index&quot;:null}" fill="#970001"/><path d="M155.81914,150.78187c0,0 0.65491,3.03759 -0.5841,6.45836c-1.93658,5.34669 -7.74393,11.86333 -7.74393,11.86333c0,0 -1.11485,-3.09463 -1.1784,-6.29284c-0.03538,-1.7805 0.45594,-3.24033 1.10193,-4.53844c0.72659,-1.46008 1.69592,-2.71556 3.23909,-3.99263c1.24248,-1.02822 2.79525,-1.77081 3.81412,-2.40899c0.90501,-0.56686 1.3513,-1.0888 1.3513,-1.0888z" data-paper-data="{&quot;index&quot;:null}" fill="#970001"/><path d="M163.93898,161.44503c0,0 -0.52756,1.43356 -0.84331,3.4911c-0.23239,1.51432 -0.06347,3.51682 -0.58835,4.81322c-1.21684,3.00551 -4.45435,7.05615 -5.9793,10.2137c-1.90168,3.9376 -1.82336,5.90069 -1.82336,5.90069c0,0 -2.21019,-3.39809 -2.55249,-5.67437c-0.18152,-1.20713 -0.36178,-2.78663 -0.20746,-4.60426c0.3231,-3.80561 1.92922,-6.61259 4.38612,-9.19706c1.02158,-1.07463 3.39886,-2.24519 5.12797,-3.28477c1.47451,-0.88652 2.48018,-1.65823 2.48018,-1.65823z" data-paper-data="{&quot;index&quot;:null}" fill="#970001"/><path d="M143.23072,168.1363c0,0 0.87395,1.85921 0.81061,3.43719c-0.08706,2.16891 -1.51648,4.44149 -3.42528,5.34565c-0.9909,0.46938 -2.71399,1.82227 -4.53948,2.24879c-2.2016,0.5144 -3.89109,0.52728 -5.78622,0.21959c-2.03945,-0.33112 -4.24886,-1.07244 -5.58539,-3.10554c-1.09574,-1.66682 -2.25253,-4.60712 -2.63424,-6.92163c-0.51754,-3.1381 -0.24126,-6.17178 -0.24126,-6.17178c0,0 0.46516,-0.70237 2.32163,-0.68421c2.17048,0.02122 5.85143,0.45077 6.98151,0.44495c2.99399,-0.01543 4.64571,-0.27962 7.38033,-1.49868c1.55882,-0.69491 3.29154,-1.92343 4.69713,-2.50642c0.60523,-0.25104 0.9274,-1.01722 1.71353,-0.17308c0.70948,0.8208 1.03415,3.06867 0.77649,4.29928c-0.5478,2.61628 -2.46937,5.06588 -2.46937,5.06588z" data-paper-data="{&quot;index&quot;:null}" fill="#ffffff"/><path d="M141.34918,164.83544c0,0 0.03023,1.19679 -0.31893,1.65401c-0.65397,0.85637 -1.76308,1.26081 -1.76308,1.26081c0,0 -1.92652,2.5172 -4.22995,3.33192c-2.83452,1.00257 -4.57367,-0.19463 -4.57367,-0.19463l0.47559,-0.74299c0,0 -1.31268,0.04567 -2.06399,-0.17531c-0.96456,-0.28369 -3.24514,-1.3862 -3.24514,-1.3862c0,0 0.26109,-0.42862 0.56091,-0.53189c0.33118,-0.11407 1.34147,-0.12334 1.34147,-0.12334c0,0 -0.99102,-0.53623 -1.48078,-0.84918c-0.52378,-0.33468 -1.56669,-1.09811 -1.56669,-1.09811c0,0 2.14225,0.48578 4.39423,0.65106c4.36337,0.32026 6.84804,-0.48341 11.08633,-1.56897c0.66666,-0.17076 1.38372,-0.2272 1.38372,-0.2272z" data-paper-data="{&quot;index&quot;:null}" fill="#970001"/><path d="M172.1772,172.97162c0,0 -2.58004,2.09625 -3.71796,4.03742c-1.21644,2.07511 -3.47925,8.33419 -3.47925,8.33419c0,0 -0.93054,-1.05497 -1.2818,-2.73784c-0.43175,-2.06852 -0.42814,-5.07054 0.48339,-7.2486c1.27846,-3.0548 3.94998,-5.35918 3.94998,-5.35918z" data-paper-data="{&quot;index&quot;:null}" fill="#970001"/><path d="M199.21078,139.05931c0,0 -0.53816,0.24869 -0.81973,0.53026c-0.33402,0.33402 -1.05408,1.34354 -1.05408,1.34354c0,0 -1.34968,-4.52196 2.7937,-8.02702c1.15267,-0.55291 3.20795,-1.72376 6.41754,-1.00533c2.28985,0.51255 3.96529,2.68367 3.96529,2.68367c0,0 4.34487,3.51937 4.50498,8.67916c0.18635,6.00559 -3.41975,7.66317 -3.41975,7.66317c0,0 -2.84353,1.58021 -5.55337,0.97714c-2.79494,-0.62201 -5.73671,-3.38976 -6.74284,-6.40913c-1.03132,-3.09498 -0.09175,-6.43546 -0.09175,-6.43546z" data-paper-data="{&quot;index&quot;:null}" fill="#970001"/><path d="M166.75394,161.02389c0,0 0.73915,-3.11004 3.48226,-4.77631c1.45647,-0.88471 3.43669,-1.25117 5.87995,-0.72449c2.04407,0.44063 4.42699,1.44011 6.32648,3.91845c2.8875,3.76743 1.92853,9.62963 -0.19797,11.6831c-3.21041,3.10016 -9.15857,1.38546 -9.15857,1.38546c0,0 4.57113,0.34753 7.22315,-3.3074c1.7176,-2.36714 0.58159,-6.26445 0.58159,-6.26445c0,0 -0.68718,0.8583 -1.63666,1.2575c-1.20125,0.50505 -4.16092,-0.52206 -4.2783,-2.47584c-0.20634,-3.43413 2.38075,-3.64121 2.38075,-3.64121c0,0 -2.18794,-1.95353 -5.07919,-1.49749c-4.1625,0.65657 -5.5235,4.44267 -5.5235,4.44267z" data-paper-data="{&quot;index&quot;:null}" fill="#ffffff"/><path d="M201.12659,138.91514c0,0 0.68578,-1.54704 2.11812,-2.61776c1.17155,-0.87577 3.14216,-1.33797 4.73711,-0.82252c2.1037,0.67987 3.69106,1.98046 4.73119,3.48013c0.57226,0.82509 0.89295,1.49564 1.24441,2.66011c0.38657,1.28084 0.45508,2.82203 0.38517,4.31617c-0.10203,2.18032 -1.55716,4.29854 -3.20738,5.24723c-2.21518,1.27348 -4.64874,0.24301 -4.64874,0.24301c0,0 2.232,-0.17318 3.81761,-1.39478c0.79557,-0.61293 1.58994,-1.65069 1.80205,-2.76557c0.42975,-2.25889 -0.07496,-4.71116 -0.07496,-4.71116c0,0 -1.0088,0.52442 -1.90557,0.47572c-0.67801,-0.03682 -1.21282,-0.5596 -1.64937,-0.98388c-0.48539,-0.47176 -1.06316,-1.43829 -1.06537,-2.20258c-0.00326,-1.1279 0.61579,-2.09466 0.61579,-2.09466c0,0 -0.80779,-0.48147 -1.71867,-0.65031c-1.08343,-0.20081 -2.36379,-0.06151 -3.3164,0.43195c-1.12528,0.5829 -1.86499,1.3889 -1.86499,1.3889z" data-paper-data="{&quot;index&quot;:null}" fill="#ffffff"/><path d="M178.38769,154.75874c2.46653,0.9837 4.27008,2.67878 5.49174,5.03652c0.98974,1.91018 1.054,3.6436 1.054,3.6436c0.13761,2.07507 -0.24668,3.99423 -0.77791,5.37683c-2.14274,5.5767 -9.35948,6.56613 -14.19153,3.05299c-4.38718,-3.1897 -5.61349,-7.26969 -5.42533,-12.69058c0.10975,-3.16196 1.28508,-5.36365 4.05683,-6.88926c1.36009,-0.74862 3.61544,-1.28647 5.2957,-1.02442c1.96708,0.30678 3.47532,1.57806 3.47532,1.57806c0,0 -1.36959,0.25898 -1.86778,0.42285c-0.47145,0.15508 -1.0456,0.53545 -1.0456,0.53545c0,0 1.9725,0.17544 3.93456,0.95795z" data-paper-data="{&quot;index&quot;:null}" fill="#970001"/><path d="M167.01611,160.75503c0,0 0.25515,-1.94568 1.90218,-3.51669c3.79211,-3.6171 10.23426,-2.05445 13.5299,2.13761c1.48448,1.88825 1.98678,4.80108 1.91852,7.16063c-0.06964,2.40749 -1.46302,4.65666 -3.79898,5.86213c-3.21763,1.66046 -7.14442,0.06178 -7.14442,0.06178c0,0 2.24546,0.30813 4.31699,-0.73041c1.51322,-0.75864 2.96719,-2.86372 3.43049,-4.69488c0.52856,-2.08912 -0.04651,-3.87747 -0.04651,-3.87747c0,0 -1.53945,1.33752 -2.93809,1.20911c-1.52021,-0.13958 -2.6757,-1.49695 -3.01404,-2.89516c-0.38084,-1.57387 0.75957,-3.30417 2.37887,-3.30417c0,0 -1.49919,-1.33756 -3.70241,-1.53567c-1.40494,-0.12634 -3.42516,0.53967 -4.45801,1.2438c-1.66614,1.13586 -2.3745,2.8794 -2.3745,2.8794z" data-paper-data="{&quot;index&quot;:null}" fill="#ffffff"/><path d="M161.63833,234.51192c0,0 -0.14476,2.77535 -0.17363,4.11049c-0.02689,1.24386 0.00593,3.64593 0.00593,3.64593c0,0 -4.72082,-0.14929 -6.98297,-0.53497c-1.95559,-0.33341 -5.80464,-1.64521 -5.80464,-1.64521c0,0 0.93184,-1.25369 1.4059,-2.12963c0.34556,-0.6385 0.71093,-1.17924 1.11466,-1.97666c0.25967,-0.51286 0.39442,-0.7638 0.80116,-0.98459c0.91352,-0.49589 2.2254,-0.50064 3.51446,-0.57257c1.76448,-0.09845 6.11912,0.08721 6.11912,0.08721z" data-paper-data="{&quot;index&quot;:null}" fill="#ffffff"/><path d="M91.40475,165.45868c0,0 -0.15962,0.90386 0.03811,1.98002c0.28053,1.52677 1.04563,2.18246 1.74216,3.56975c0.35646,0.70998 0.47192,1.42232 0.29525,2.03452c-0.47337,1.64029 -2.89747,2.72972 -4.66321,2.55949c-2.43595,-0.23484 -4.90394,-1.76203 -6.3001,-3.86972c-1.24481,-1.87921 -1.73806,-4.14083 -1.73806,-4.14083c0,0 2.31339,1.86759 3.47404,2.21149c1.83841,0.54471 3.41744,0.22105 4.43583,-1.40356c0.27082,-0.43202 0.30101,-1.57267 0.30101,-1.57267c0,0 0.67039,-0.17976 1.22931,-0.52851c0.28801,-0.17972 0.45774,-0.46344 0.67672,-0.66668c0.19785,-0.18362 0.50894,-0.17329 0.50894,-0.17329z" data-paper-data="{&quot;index&quot;:null}" fill="#ffffff"/><path d="M204.11624,161.71077c2.40332,-3.58525 4.54994,-7.10113 7.93655,-8.82749c3.54432,-1.80676 8.3646,-1.70043 12.47408,0.17511c1.79146,0.8176 2.84461,1.99796 2.84461,1.99796c0,0 0.97003,3.33413 0.71548,7.95287c-0.81687,14.82154 -6.57017,23.88075 -18.48942,32.72817c-2.5191,1.86987 -4.9571,3.36541 -6.97391,5.08294c-3.7925,3.22973 -6.14079,6.00346 -6.43887,10.97592c-0.10075,1.68061 0.12944,4.85463 0.21838,7.94937c0.12888,4.48451 0.16449,8.87032 0.16449,8.87032c0,0 -1.30966,2.00578 -3.09765,3.90278c-1.09759,1.16449 -3.46236,3.06228 -3.46236,3.06228l-0.08373,-1.63446l-1.50685,1.7076c0,0 -0.91899,-0.17092 -1.86027,-0.71619c-1.38442,-0.80198 -3.05509,-2.17571 -3.87066,-3.05682c-2.21356,-2.39148 -3.3533,-4.87983 -3.81075,-7.57588c-0.36518,-2.15227 -0.42963,-4.45925 0.7229,-6.79143c0.77599,-1.57024 1.99869,-2.57478 1.99869,-2.57478c0,0 -1.07147,-0.46453 -1.80358,-1.21416c-1.31616,-1.34765 -0.96877,-4.70018 -0.96877,-4.70018c0,0 -0.9906,-0.07143 -1.81,-0.36627c-0.93161,-0.3352 -1.62024,-1.43694 -1.64325,-2.42675c-0.01649,-0.70953 3.69331,-1.11598 3.69331,-1.11598c0,0 -1.73782,-0.53409 -3.26838,-0.59933c-1.22191,-0.05207 -2.20225,0.41361 -2.86223,0.08559c-2.19834,-1.0926 -3.27061,-2.74883 -3.95277,-4.72131c-0.9648,-2.7897 -0.90277,-6.21198 -0.00886,-9.56693c1.15874,-4.34892 3.10751,-7.77302 5.19212,-10.84571c3.65136,-5.38207 8.48391,-9.30381 15.69431,-12.49058c3.22918,-1.42719 6.94181,-1.18452 9.44629,-1.59084c0.71903,-0.11665 2.11828,-0.79703 3.07979,-1.62319c1.10539,-0.94979 1.73133,-2.05263 1.73133,-2.05263z" data-paper-data="{&quot;index&quot;:null}" fill="#ffffff"/><path d="M215.75223,161.40526c0,0 0.98123,1.79593 0.91554,3.59903c-0.1029,2.82427 -2.62541,4.2779 -5.45083,4.34179c-2.12749,0.04811 -4.17324,-0.74178 -4.17324,-0.74178l-0.69668,4.06398c0,0 0.44443,1.14804 0.39749,2.32423c-0.06546,1.63986 -0.60395,3.26939 -2.23697,3.43265c-1.17827,0.11779 -2.57284,-0.76399 -2.57284,-0.76399c0,0 -3.32887,1.20583 -6.10612,0.50124c-3.86427,-0.98037 -5.73747,-3.40408 -5.73747,-3.40408c0,0 -0.87205,0.69314 -1.12701,0.96935c-0.4873,0.5279 -0.19894,-1.08546 0.17649,-1.698c0.1684,-0.27475 0.59986,-0.6824 0.962,-0.99995c1.14026,-0.99987 1.92537,1.69419 3.08287,2.27745c2.41853,1.21867 5.29042,1.81989 8.20058,0.56616c1.55373,-0.66936 2.85729,-2.41992 3.49999,-4.27352c0.78543,-2.26524 -0.65904,-6.48105 1.44103,-5.32435c1.33938,0.73773 3.97508,2.13729 6.65162,0.9387c3.28824,-1.47251 2.77355,-5.80889 2.77355,-5.80889z" data-paper-data="{&quot;index&quot;:null}" fill="#970001"/><path d="M209.94655,175.10666c0,0 0.40586,5.10477 -1.36394,7.51456c-0.70227,0.95622 -2.4089,1.99608 -2.67267,0.83937c-0.072,-0.31578 0.26754,-0.66078 0.4507,-0.91277c0.64003,-0.88058 1.74043,-2.2842 2.17018,-3.15598c0.6902,-1.40011 1.41573,-4.28518 1.41573,-4.28518z" data-paper-data="{&quot;index&quot;:null}" fill="#970001"/><path d="M203.41139,163.81253c-0.90829,0.90067 -2.65641,1.62922 -4.02845,1.90261c-1.60985,0.32078 -2.78945,0.10243 -2.78945,0.10243c0,0 -0.26277,-0.6418 -0.2226,-0.94311c0.03697,-0.27726 0.45482,-0.7986 0.45482,-0.7986c0,0 2.95617,-0.24061 4.08146,-0.50659c0.98462,-0.23272 2.65313,-1.00288 2.65313,-1.00288c0,0 1.20866,-3.30505 1.69421,-4.1402c0.48203,-0.8291 1.20863,-0.85269 1.20863,-0.85269c0,0 0.70871,0.3744 0.93595,0.72608c0.26535,0.41065 0.04305,0.8325 -0.15402,1.23521c-0.17279,0.35309 -0.30706,1.01 -0.85866,1.5615c-1.00765,1.00746 -2.59387,1.93455 -2.59387,1.93455c0,0 0.04945,0.3547 -0.38114,0.78169z" data-paper-data="{&quot;index&quot;:null}" fill="#970001"/><path d="M225.94069,144.8395c2.33537,-1.37786 4.32574,-2.24464 4.32574,-2.24464c0,0 -4.98025,2.65369 -9.2869,5.99695c-1.63663,1.27052 -3.20505,2.63335 -4.41703,3.97518c-2.49077,2.75761 -4.66642,5.83928 -5.41239,6.92449c-0.1526,0.22198 -0.35683,0.36425 -0.59898,0.24624c-0.01306,-0.00636 -0.25397,-0.24393 -0.00744,-0.55066c0.80141,-0.99705 3.6081,-5.1146 7.22881,-8.42699c3.67993,-3.36657 8.16819,-5.92058 8.16819,-5.92058z" data-paper-data="{&quot;index&quot;:null}" fill="#970001"/><path d="M214.14836,159.5723c0,0 -2.42504,2.22373 -3.37973,2.8969c-0.21418,0.15103 -0.43706,0.0035 -0.4485,-0.01557c-0.11338,-0.18895 -0.00969,-0.36035 0.15301,-0.50897c0.94179,-0.86026 4.05152,-3.59245 7.99219,-5.91481c2.58049,-1.52076 5.80351,-2.72266 8.35027,-3.43668c3.31106,-0.9283 6.23756,-1.28979 6.23756,-1.28979c0,0 -8.8867,2.16128 -12.75095,4.13325c-1.72524,0.88041 -4.22199,2.58709 -6.15385,4.13568z" data-paper-data="{&quot;index&quot;:null}" fill="#970001"/><path d="M216.72371,161.86867c-1.27314,0.33683 -2.3271,1.15729 -2.61119,1.33632c-0.67585,0.42589 -1.14992,0.96758 -1.57355,1.1991c-0.20029,0.10945 -0.34561,-0.20847 -0.17072,-0.35512c0.71759,-0.60171 2.56202,-2.07248 3.89491,-2.47001c2.44051,-0.72788 9.03942,-1.21872 9.03942,-1.21872c0,0 -5.24798,0.6272 -8.57887,1.50843z" data-paper-data="{&quot;index&quot;:null}" fill="#970001"/><path d="M185.56758,176.01088c0,0 3.33348,-2.31208 6.95237,-3.81286c2.92694,-1.21383 6.18594,-1.65906 6.87895,-1.78662c0.27025,-0.04975 0.3895,0.27236 0.38659,0.28977c-0.03482,0.20893 -0.14352,0.34858 -0.35397,0.37271c-0.69294,0.07946 -2.51208,0.32574 -4.53765,0.90583c-2.01523,0.57713 -4.26308,1.5178 -6.34631,2.7001c-5.94513,3.37403 -11.22892,8.20646 -11.22892,8.20646c0,0 3.68488,-3.62333 8.24893,-6.87539z" data-paper-data="{&quot;index&quot;:null}" fill="#970001"/><path d="M189.51056,181.95736c0,0 1.42203,-2.64832 3.38769,-4.82128c2.06697,-2.28494 3.73955,-3.08898 6.53082,-4.39364c0.29852,-0.13953 0.78771,0.09578 0.78771,0.12122c0,0.32975 -0.19013,0.53366 -0.50722,0.62416c-2.52896,0.72186 -3.87838,1.58222 -5.83309,3.3417c-2.6347,2.37156 -4.36591,5.12784 -4.36591,5.12784z" data-paper-data="{&quot;index&quot;:null}" fill="#970001"/><path d="M197.13159,168.83405c0,0 0.31346,0.10121 0.33282,0.2931c0.01716,0.17005 -0.07039,0.29686 -0.24101,0.30679c-1.66721,0.097 -6.61778,-0.37944 -13.75184,1.62345c-8.55699,2.40237 -11.37803,4.97818 -11.37803,4.97818c0,0 1.42393,-1.37671 3.88878,-2.61562c3.44957,-1.73387 8.13979,-3.14477 12.25243,-3.83219c4.25548,-0.71131 7.89256,-0.75638 8.89686,-0.75371z" data-paper-data="{&quot;index&quot;:null}" fill="#970001"/><path d="M214.42772,147.24246l-0.1041,-6.7437c0,0 1.5736,0.29561 2.22061,0.31464c0.48624,0.0143 1.73233,-0.00378 1.73233,-0.00378c0,0 2.21815,1.86822 3.21188,2.91276c1.03172,1.08446 2.86874,3.47872 2.86874,3.47872c0,0 -3.40161,-0.53758 -5.00012,-0.53758c-1.62807,0 -4.92934,0.57894 -4.92934,0.57894z" data-paper-data="{&quot;index&quot;:null}" fill="#970001"/><path d="M153.05257,243.02353c0,0 -0.09288,0.70657 -0.09288,1.24405c0,0.49604 2.24785,2.21785 2.26843,3.24972c0.02535,1.27131 -2.17555,1.78568 -2.17555,1.78568c0,0 -0.02768,-0.73852 -0.2176,-1.50338c-0.17622,-0.70965 -0.5732,-1.55052 -1.35456,-2.19501c-0.51331,-0.42339 -1.08452,-0.28665 -1.08452,-0.28665c0,0 -0.42343,0.28411 -0.57248,0.43315c-0.23419,0.23419 -0.03388,0.5877 0.20874,0.81316c0.62795,0.58352 1.59437,1.72812 1.12835,2.9236c-0.49984,1.28231 -2.34928,1.86275 -3.30933,0.98302c-0.41189,-0.37743 -0.12955,-1.70572 -0.37926,-2.24079c-0.16296,-0.34918 -0.5599,-0.82336 -0.94465,-1.16166c-0.38,-0.33412 -0.79097,-0.45701 -1.23518,-0.21471c-0.4653,0.2538 -0.61526,0.82843 -0.26159,1.2232c0.23223,0.25922 0.75359,0.45194 0.87808,0.64346c0.88415,1.36024 -1.18148,3.23906 -2.787,3.00599c-0.5449,-0.0791 -1.46426,-0.55048 -2.2629,-1.09023c-1.21321,-0.81993 -2.31571,-1.93696 -2.31571,-1.93696c0,0 4.95476,-3.5429 6.5804,-4.90131c1.12036,-0.93619 2.37432,-2.51142 2.37432,-2.51142c0,0 2.68181,1.29476 3.70586,1.60643c0.70978,0.21602 1.84903,0.13064 1.84903,0.13064z" data-paper-data="{&quot;index&quot;:null}" fill="#e66818"/><path d="M198.21634,220.07938c0,0 4.06496,3.041 6.72294,3.87029c4.13629,1.29052 10.04347,-0.58209 10.21734,3.74736c0.05655,1.40796 -1.12089,2.52608 -1.12089,2.52608c0,0 0.2275,-1.97844 -0.54883,-3.09338c-1.00397,-1.44187 -2.95317,-1.13318 -2.95317,-1.13318c0,0 2.34911,1.79923 2.06122,3.95505c-0.38444,2.8788 -3.99336,2.80744 -3.99336,2.80744c0,0 1.17838,1.35335 2.7554,1.036c0.6885,-0.07443 1.75912,-1.4726 1.75912,-1.4726c0,0 1.18888,-0.06491 2.24797,-1.01251c1.19467,-1.0689 1.20759,-2.41517 1.20759,-2.41517c0,0 1.01775,2.115 -0.29315,3.34876c-0.52761,0.49656 -1.25431,0.85764 -1.90512,0.92909c-0.51165,0.05617 -1.22628,-0.84813 -1.22628,-0.84813c0,0 -0.35269,1.30177 -0.65496,2.08655c-0.19258,0.49998 -0.49854,0.92809 -0.76861,1.35575c-0.71313,1.12924 -2.01375,2.37432 -3.50701,3.60637c-2.16905,1.78963 -6.10415,4.26128 -9.28064,4.30328c-5.35934,0.07086 -9.89722,-3.3096 -9.89722,-3.3096l0.24152,-1.93214c0,0 3.46478,-2.33367 5.59228,-5.32154c0.97637,-1.37122 1.17571,-3.57177 1.65197,-5.42632c0.44771,-1.74338 1.32148,-3.35537 1.61431,-4.72583c0.35039,-1.63978 0.07758,-2.88163 0.07758,-2.88163z" data-paper-data="{&quot;index&quot;:null}" fill="#e66818"/><path d="M212.56233,230.36723c0,0 -0.45327,1.13738 -1.06869,1.57112c-0.45486,0.38663 -1.75495,0.69988 -1.75495,0.69988c0,0 -0.17608,-0.63297 -0.10692,-0.93268c0.16174,-0.70087 0.67516,-1.0165 1.37533,-1.18125c0.38832,-0.09136 1.55523,-0.15707 1.55523,-0.15707z" data-paper-data="{&quot;index&quot;:null}" fill="#fe86b1"/><path d="M215.71065,230.89223c0,0 0.27939,0.72169 0.1514,1.04547c-0.28112,0.71119 -0.68289,1.25144 -1.52954,1.25144c-0.42096,0 -1.21771,-0.85069 -1.21771,-0.85069c0,0 0.59112,-0.11951 1.12798,-0.33295c0.33537,-0.13333 0.63254,-0.30944 0.80367,-0.43895c0.28512,-0.21577 0.6642,-0.67431 0.6642,-0.67431z" data-paper-data="{&quot;index&quot;:null}" fill="#fe86b1"/><path d="M212.35401,234.67058c0,0 -0.09812,0.48662 -0.55174,1.13602c-1.22044,1.74715 -3.39148,3.56009 -5.10107,4.74582c-1.28371,0.89033 -2.31587,1.40264 -2.31587,1.40264c0,0 -1.1365,-0.63925 -1.01236,-1.49025c0.28505,-1.95417 2.07104,-2.95439 3.38343,-4.04399c1.1151,-0.9258 1.89531,-2.08037 3.56915,-2.19783c0.64885,-0.04553 2.02846,0.44761 2.02846,0.44761z" data-paper-data="{&quot;index&quot;:null}" fill="#fe86b1"/><path d="M214.93524,228.93727c0,0 -0.19868,0.52233 -0.31853,0.67904c-0.15526,0.20303 -0.57432,0.55575 -0.57432,0.55575l0.01381,-1.16917z" data-paper-data="{&quot;index&quot;:null}" fill="#fe86b1"/><path d="M91.14724,165.39973c0,0 -3.6568,-0.01238 -5.27677,-1.77451c-1.94571,-2.11647 -1.43021,-5.85964 0.17088,-7.49009c2.85029,-2.90258 9.51876,-2.88717 14.55752,-1.98989c6.17097,1.09889 15.89283,8.72352 15.89283,8.72352c0,0 0.22748,3.7656 0.54456,5.46476c0.28278,1.51532 1.55708,4.24198 1.55708,4.24198c0,0 -6.2331,8.1998 -7.97593,11.71937c-1.75846,3.55111 -1.53813,8.41957 -0.28342,11.23704c1.60998,3.61523 3.09873,4.25621 5.80344,6.03079c6.80347,4.46381 17.28037,5.89508 27.18174,4.86484c5.63273,-0.5861 9.96437,-1.67017 9.96437,-1.67017c0,0 7.97498,0.90519 11.86678,1.08292c3.53035,0.16122 10.59701,0.03022 10.59701,0.03022c0,0 -0.02307,1.66375 0.59678,2.25664c0.51945,0.49687 2.87459,0.97233 2.87459,0.97233c0,0 -0.49972,1.76547 -0.00491,3.33794c0.46753,1.48577 2.72164,2.39737 2.72164,2.39737c0,0 -4.10301,3.54207 -2.89819,9.33544c1.93876,9.32253 9.50706,11.40128 9.50706,11.40128c0,0 -0.56063,1.03659 -0.90563,2.50463c-0.4478,1.90545 -0.61668,4.61239 -0.62898,6.45768c-0.0091,1.36482 -0.16908,3.77166 0.6583,5.82718c0.82978,2.06151 2.83536,2.72312 2.75304,5.24236c-0.0708,2.16696 -1.93618,2.69897 -1.93618,2.69897c0,0 0.31813,-2.60038 -1.16946,-4.18397c-1.17809,-1.2541 -2.45284,-0.79669 -2.45284,-0.79669c0,0 2.77841,3.22398 1.60542,5.17588c-2.52355,4.19926 -5.55279,0.67552 -5.55279,0.67552c0,0 0.28212,-2.58809 -0.9576,-4.01047c-0.92071,-1.05636 -2.18869,-0.33164 -2.18869,-0.33164c0,0 2.21339,2.05398 1.23705,4.3002c-0.96154,2.21214 -3.1295,2.83859 -5.35861,2.82309c-1.95513,-0.01359 -3.93052,-0.44066 -5.5423,-1.81105c-2.09333,-1.77982 -2.85713,-3.07384 -3.69146,-5.14772c-1.18326,-2.94117 -1.21776,-6.35043 -1.18669,-9.99787c0.02684,-3.14986 0.0288,-6.47735 0.26265,-9.83439c0.20164,-2.89454 1.90319,-4.48089 1.90319,-4.48089c0,0 -1.6387,0.07627 -2.46087,1.10141c-0.97878,1.22044 -1.22546,2.7953 -1.22546,2.7953c0,0 -4.69812,-0.26677 -6.51616,-0.15983c-1.47988,0.08705 -2.96223,0.0518 -4.06308,0.52909c-2.23031,0.96697 -2.48023,2.8683 -4.17134,4.61456c-1.20385,1.2431 -2.51973,2.6653 -4.12438,3.91826c-2.01834,1.57597 -4.32459,2.95177 -5.53474,4.12847c-1.11334,1.08255 -1.02166,2.24073 -1.02166,2.24073c0,0 -0.12067,1.07643 0.3958,2.28173c0.32536,0.75929 1.63649,1.91798 1.64473,2.79315c0.00274,0.28981 -0.26422,1.01456 -0.47391,1.23595c-0.46826,0.49437 -1.11384,0.33005 -1.11384,0.33005c0,0 -0.0142,-1.33 -0.46584,-2.35212c-0.26784,-0.60618 -0.91533,-0.99117 -1.18885,-1.23431c-0.2871,-0.25519 -0.96956,-0.56197 -1.41764,-0.5111c-0.47753,0.05422 -0.88665,0.30108 -0.88665,0.30108c0,0 3.03264,2.28089 2.16549,4.11038c-1.3139,2.772 -4.03469,0.89349 -4.03469,0.89349c0,0 0.39612,-1.9542 -0.80109,-2.94891c-1.01012,-0.83927 -2.28715,-0.37152 -2.28715,-0.37152c0,0 1.59139,1.77297 1.36629,3.08326c-0.19424,1.13061 -1.64398,1.59125 -3.02823,1.53695c-2.00306,-0.07858 -3.50306,-1.35813 -5.03793,-2.55237c-1.94757,-1.51536 -3.53981,-2.59749 -3.75157,-5.05605c-0.32068,-3.72323 2.40351,-5.39371 3.22382,-11.39049c0.61944,-4.52835 -0.63746,-11.85189 0.54372,-15.44365c1.40856,-4.28317 5.49969,-6.18002 5.49969,-6.18002c0,0 -0.83869,-0.68625 -2.67744,-1.59862c-1.88341,-0.93453 -4.44883,-2.02867 -7.19197,-3.64922c-4.08275,-2.41194 -8.48863,-5.70781 -11.05616,-9.10145c-1.83363,-2.42361 -2.86949,-5.23875 -3.8981,-7.7745c-1.93762,-4.77671 -0.34412,-13.82362 2.21058,-17.90814c1.97622,-3.15962 4.42202,-5.52945 4.08323,-8.09287c-0.18914,-1.43107 -2.43086,-3.2332 -4.14532,-4.31563c-2.43421,-1.53683 -5.7235,-2.72715 -8.42081,-2.68516c-2.07098,0.03224 -4.38394,2.14952 -4.38394,2.14952z" data-paper-data="{&quot;index&quot;:null}" fill="#ffb84e"/><path d="M175.27218,205.85914c0,0 -6.601,6.55057 -16.92878,6.3852c-7.80651,-0.12498 -14.06714,-5.99363 -14.06714,-5.99363c0,0 3.45698,-0.48916 5.8825,-0.80143c1.48275,-0.1909 3.44786,-1.08791 4.65778,-1.10827c2.62706,-0.04421 4.32796,0.65027 7.5534,1.01506c3.6789,0.41607 12.90223,0.50308 12.90223,0.50308z" data-paper-data="{&quot;index&quot;:null}" fill="#e66818"/><path d="M172.11817,205.45888c0,0 -2.62168,4.506 -3.24323,8.401c-0.55935,3.50527 0.75518,8.66769 0.75518,8.66769c0,0 -4.27626,-0.46782 -5.84754,-8.57963c-0.62006,-3.20106 2.28928,-9.28487 2.28928,-9.28487z" data-paper-data="{&quot;index&quot;:null}" fill="#970001"/><path d="M160.39145,204.7454c0,0 -0.85596,2.54065 -1.53623,4.67854c-0.45566,1.43197 -0.73162,2.91426 -0.99373,3.56633c-0.30517,0.75922 -1.22039,1.48776 -1.22039,1.48776c0,0 -2.06043,-2.04122 -2.65609,-4.08433c-0.68372,-2.34514 -0.82899,-6.07822 -0.82899,-6.07822c0,0 2.73922,-0.37667 3.99018,-0.31894c1.11055,0.05125 3.24526,0.74885 3.24526,0.74885z" data-paper-data="{&quot;index&quot;:null}" fill="#970001"/><path d="M149.59774,205.33082c0,0 -2.04284,6.42716 -2.20389,9.6775c-0.17343,3.5001 1.1977,10.62932 1.1977,10.62932c0,0 -6.57262,-4.13811 -7.6876,-8.3495c-1.63278,-6.16713 1.10161,-10.95112 1.10161,-10.95112z" data-paper-data="{&quot;index&quot;:null}" fill="#970001"/><path d="M136.71847,206.29128c0,0 0.00265,1.31651 -0.18949,1.95364c-0.22062,0.73158 -0.84686,1.34727 -0.94729,2.18838c-0.26973,2.25894 -0.52801,8.61834 -0.52801,8.61834c0,0 -2.86863,-2.91282 -4.19303,-6.24052c-0.56509,-1.41983 -0.69942,-2.99002 -0.45451,-4.31936c0.20253,-1.09933 0.71424,-2.38343 0.71424,-2.38343z" data-paper-data="{&quot;index&quot;:null}" fill="#970001"/><path d="M156.00078,219.23458c0,0 2.50414,0.1291 3.18505,1.14045c0.51374,0.76306 0.81318,2.56851 1.20696,4.40701c0.44948,2.09845 1.82809,3.69122 1.82809,3.69122c0,0 -2.07969,-0.16679 -3.72221,-1.32283c-2.06775,-1.45533 -2.79263,-3.00675 -2.8813,-5.53376c-0.02703,-0.77047 0.38341,-2.3821 0.38341,-2.3821z" data-paper-data="{&quot;index&quot;:null}" fill="#970001"/><path d="M163.13561,235.97398c0,0 1.32601,0.0941 3.02918,-0.01077c2.97262,-0.18304 7.28132,-0.59784 9.03677,-0.49145c1.59012,0.09637 3.02696,1.41694 3.02696,1.41694c0,0 -1.52168,0.38057 -3.00804,1.0303c-2.56525,1.12135 -3.89913,2.28701 -6.68271,2.5864c-2.48163,0.26691 -5.40215,0.04218 -5.40215,0.04218z" data-paper-data="{&quot;index&quot;:null}" fill="#970001"/><path d="M166.88596,247.22505c0,0 1.27318,-2.04068 6.29358,-3.03358c4.94043,-0.59049 7.79313,1.75297 7.79313,1.75297c0,0 -5.22317,3.43737 -7.58319,3.66638c-4.07185,0.39511 -6.50352,-2.38578 -6.50352,-2.38578z" data-paper-data="{&quot;index&quot;:null}" fill="#970001"/><path d="M138.62108,222.07022c0,0 1.82959,3.0232 3.21059,4.67236c0.69647,0.83172 2.41826,2.09084 3.55844,3.28563c1.63437,1.71264 2.6526,3.29309 2.6526,3.29309c0,0 -4.15669,1.0216 -8.07861,-2.93251c-4.06572,-4.09909 -1.34302,-8.31856 -1.34302,-8.31856z" data-paper-data="{&quot;index&quot;:null}" fill="#970001"/><path d="M124.92771,218.84126c0,0 1.6542,0.73561 1.95577,1.83154c0.46002,1.67177 1.08436,4.11451 2.01578,5.53339c1.69747,2.58588 6.5203,7.84687 6.5203,7.84687c0,0 -6.90881,-1.40625 -9.383,-3.21296c-2.66493,-1.946 -5.18851,-6.61114 -5.18851,-6.61114c0,0 0.79663,-1.79082 1.4341,-2.76788c0.62138,-0.95238 2.64556,-2.61984 2.64556,-2.61984z" data-paper-data="{&quot;index&quot;:null}" fill="#970001"/><path d="M120.69255,233.77865c0,0 2.20025,-0.72075 3.74495,0.22537c0.78945,0.48354 2.30054,1.78744 3.67319,3.24217c0.8902,0.94344 1.28875,2.0948 2.20842,2.85565c2.47294,2.04589 5.00899,2.64108 5.00899,2.64108c0,0 -1.75359,0.5211 -4.02395,0.48946c-0.70808,-0.00987 -1.549,-0.4038 -2.29675,-0.46039c-0.74841,-0.05664 -1.57437,0.0594 -2.27252,-0.05937c-1.28877,-0.21924 -2.36233,-0.79814 -3.26285,-1.63256c-1.90347,-1.76375 -2.96241,-4.46578 -2.96241,-4.46578z" data-paper-data="{&quot;index&quot;:null}" fill="#970001"/><path d="M119.32047,244.29794c0,0 1.67024,1.99797 2.60663,2.87192c0.89078,0.8314 2.8817,2.25052 2.8817,2.25052c0,0 -2.47181,0.59405 -3.64274,0.30132c-1.14582,-0.28645 -3.30914,-2.03929 -3.30914,-2.03929z" data-paper-data="{&quot;index&quot;:null}" fill="#970001"/><path d="M126.60165,205.60524c0,0 0.10963,0.64555 -0.32022,1.38361c-0.4159,0.7141 -1.36605,1.50898 -1.69514,2.2323c-0.38061,0.83655 -0.53765,2.00365 -0.98909,2.70475c-0.72207,1.12137 -1.66062,1.54593 -1.66062,1.54593c0,0 -2.09493,-1.23278 -2.62233,-5.13968c-0.35243,-2.61066 1.25026,-4.55637 1.25026,-4.55637z" data-paper-data="{&quot;index&quot;:null}" fill="#970001"/><path d="M115.07616,202.1293c0,0 -2.57399,2.735 -3.20741,3.94006c-0.61622,1.17232 -0.94542,3.39601 -0.94542,3.39601l-4.45468,-3.61315c0,0 1.185,-3.77132 3.15738,-4.42693c0.60684,-0.20172 3.23324,-0.18901 3.23324,-0.18901l0.25612,0.63155z" data-paper-data="{&quot;index&quot;:null}" fill="#970001"/><path d="M110.10008,193.4303c0,0 -2.81198,-0.2163 -3.98496,0.07694c-1.14356,0.2859 -3.66211,2.12753 -3.66211,2.12753l0.27442,-2.10386l-1.46355,0.73178c0,0 -0.33516,-2.79051 1.92343,-4.46876c2.12384,-1.57811 6.75728,-0.74515 6.75728,-0.74515z" data-paper-data="{&quot;index&quot;:null}" fill="#970001"/><path d="M111.14286,183.37752c0,0 -2.57108,-0.52007 -4.03385,-0.38268c-1.99992,0.18783 -2.39447,0.8662 -3.56544,1.2138c-0.97733,0.29011 -2.6273,0.17508 -2.6273,0.17508l2.88137,-6.21095c0,0 3.79887,-0.42525 5.05613,0.19581c1.27326,0.62896 3.64287,4.15825 3.64287,4.15825z" data-paper-data="{&quot;index&quot;:null}" fill="#970001"/><path d="M111.66243,169.30545c1.97287,-0.98644 4.18871,-0.46549 5.90062,0.92543c0.69545,0.56506 1.26348,2.4444 1.26348,2.4444l-1.97579,2.65269c0,0 -1.10165,0.04656 -1.87759,-0.44368c-0.79389,-0.50159 -1.67243,-1.54368 -2.34792,-1.85672c-1.12997,-0.52364 -3.67768,-1.17554 -3.67768,-1.17554c0,0 1.70558,-2.04192 2.7149,-2.54658z" data-paper-data="{&quot;index&quot;:null}" fill="#970001"/><path d="M113.33819,161.51568c0,0 -0.9918,0.25221 -1.99726,0.73013c-0.89094,0.4235 -1.77295,1.04387 -2.27572,1.53248c-1.09415,1.06332 -2.23985,4.55206 -2.23985,4.55206l-4.37237,-2.97285c0,0 -0.358,-3.21936 1.24358,-4.6656c2.33828,-2.1115 6.07419,-1.5545 6.07419,-1.5545l-1.00619,1.09766c0,0 1.48709,-0.10683 2.25979,0.10952c0.75122,0.21034 2.31382,1.17109 2.31382,1.17109z" data-paper-data="{&quot;index&quot;:null}" fill="#970001"/><path d="M100.07474,155.84441c0,0 -2.46102,1.97088 -2.99701,3.76609c-0.58343,1.95407 0.98462,4.10051 0.98462,4.10051l-5.03096,0.18295c0,0 -1.87054,-2.48751 -1.56434,-4.88777c0.3183,-2.49508 3.75968,-3.7106 3.75968,-3.7106l-0.54883,1.92092c0,0 2.62163,-1.88267 3.5532,-2.09893c0.51619,-0.11983 1.84366,0.72684 1.84366,0.72684z" data-paper-data="{&quot;index&quot;:null}" fill="#970001"/></g></g></g></svg>